<?xml version="1.0" encoding="utf-8"?>
<!-- Generator: Adobe Illustrator 24.2.1, SVG Export Plug-In . SVG Version: 6.00 Build 0)  -->
<svg version="1.1" id="Capa_1" xmlns="http://www.w3.org/2000/svg" xmlns:xlink="http://www.w3.org/1999/xlink" x="0px" y="0px"
	 viewBox="0 0 800 800" style="enable-background:new 0 0 800 800;" xml:space="preserve">
<text transform="matrix(1 0 0 1 -1078.1049 6254.5483)" style="font-family:'BebasNeue'; font-size:189.692px;">INVERSIÓN</text>
<text transform="matrix(1 0 0 1 -960.9745 7398.3877)" style="font-family:'BebasNeue'; font-size:189.692px;">BECAS</text>
<path d="M1219.6,6358.7c1.9-7.5,3.5-15.2,5.6-22.6c16.4-58.8,70.6-101.8,131.8-103.7c29.3-0.9,58.6-0.5,87.8-0.4
	c13.4,0.1,22,8.1,22.3,19.8c0.3,12.1-8.5,20.7-22.4,20.9c-30.5,0.5-61.2-1.3-91.5,1.5c-52.4,4.8-88.3,44.4-92,97.9
	c-1.2,17.9-12.5,28.3-26.8,23.3c-5.7-2-10-7.8-14.9-11.9C1219.6,6375.2,1219.6,6366.9,1219.6,6358.7z"/>
<path d="M1591,6272.7c0-20.3-0.1-38.8,0-57.3c0.1-15.8,8.1-25.2,21-24.9c12.3,0.2,20.2,9.4,20.4,24.5c0.2,18.5,0.1,37,0.1,57.7
	c11.2,0,21.7,0,32.2,0c10.3,0,20.7-0.5,30.9,0.4c11.5,1,19.2,9.9,19.2,20.5c-0.1,11.1-8.5,20-20.6,20.4c-16.1,0.5-32.2,0.1-48.3,0.2
	c-4,0-8,0-13.4,0c0,20-0.1,38.9,0,57.7c0,10.9-3.5,19.7-14.3,23.5c-13.5,4.8-26.7-4.9-27-20.1c-0.4-19.7-0.1-39.5-0.1-61.1
	c-20.2,0-39.8,0.2-59.4-0.1c-14.3-0.2-22.8-8-22.9-20.4c-0.1-12.4,8.4-20.6,22.6-20.9C1550.7,6272.5,1570,6272.7,1591,6272.7z"/>
<g>
	<path d="M396.9,7116.2c8.3,0,16.6,0,24.9,0c1.8,0.8,3.6,1.9,5.5,2.3c36.8,8.4,61.7,30.4,71.7,66.8c10,36.3,0.2,68.1-27.1,94.2
		c-1.9,1.8-3.7,3.9-4.2,4.4c13.6,12.4,28.1,22.8,38.6,36.2c10.8,13.7,17.8,30.4,26.4,45.9c17.7,0,36.8,0,55.9,0
		c18.5,0.1,23,4.4,23.1,22.5c0.1,12.8,0,25.6,0,39.4c12.9,0.3,25.7-1.1,32,12.4c0,44,0,88.1,0,132.1c-5.2,9.4-13.1,12.2-23.7,12.2
		c-140.8-0.3-281.6-0.2-422.3-0.2c-17.3,0-22.4-5.1-22.5-22.1c-0.1-34.5,0-68.9,0-103.4c0-28.1,0.6-28.8,28.7-31.3
		c0.7-0.1,1.3-0.9,2.9-2c0-12.6-0.1-25.8,0-39c0.1-15.8,5-20.6,20.9-20.8c19.9-0.1,39.7,0,60.7,0c9.5-35.3,31.5-62.2,64.5-80.4
		c-3.3-3.1-5.4-5-7.5-7.1c-26.6-26.1-35.8-57.6-26-93.3c9.9-35.9,34.5-57.6,70.5-66.4C392.5,7118.1,394.7,7117,396.9,7116.2z
		 M498.8,7374c-6.2-39.7-49.7-72.5-93.2-70.3c-42.6,2.2-83.7,36.8-85.1,72.5c40,13,67.2,41.5,88.1,77.8
		C444.8,7403,445.1,7402.7,498.8,7374z M611.2,7457.4c-32.4,2.7-63.5,3.7-94,8.3c-26.8,4-51.6,15.2-72.3,33.6
		c-15.9,14.1-23.4,31.3-18.9,52.8c62.1,0,123.3,0,185.2,0C611.2,7521.5,611.2,7491.4,611.2,7457.4z M207.5,7552.2
		c62.7,0,124,0,185.6,0c4.5-27.1-8.2-45.3-28.4-59.5c-30.1-21.2-64.6-29.7-100.7-32.1c-18.8-1.2-37.8-0.2-56.6-0.2
		C207.5,7491.8,207.5,7521.5,207.5,7552.2z M409.1,7148.3c-34.7,0.1-62.3,28-62.1,62.6c0.3,33.8,28.1,61.6,61.9,61.9
		c34.1,0.3,62.7-28.2,62.7-62.4C471.8,7175.8,443.9,7148.2,409.1,7148.3z M374.9,7461.5c-16.8-44.1-81.7-73-136.5-62.4
		c0,9.2,0,18.5,0,28.8C286.4,7428.4,331.7,7437.7,374.9,7461.5z M580.4,7399.1c-63.1-10.5-115.6,19.2-136.9,63.2
		c43.2-26.4,89.1-33.5,136.9-34.3C580.4,7417.6,580.4,7408.3,580.4,7399.1z"/>
</g>
<g>
	<g>
		<path d="M462.3,492.3c8.7,6.5,18.1,12.2,25.9,19.5c15,14,23.2,31.8,25.8,52.1c2.3,18.4,4.5,36.8,6.9,55.1
			c3,22.7-4.3,33.3-26.7,37.6c-62.7,11.9-125.5,12-188.3,0c-21.7-4.2-29.4-15.1-26.5-36.6c2.1-15.8,5.1-31.6,6.3-47.5
			c2.7-36.4,20.1-62.6,54-79.3c-15.7-22-20.5-45.9-12.6-71.6c5.1-16.7,15.4-29.9,29.7-39.7c28.6-19.7,67.8-17.3,93.7,5.4
			C480.6,413.6,484.6,449.8,462.3,492.3z M399.9,647.1c30-3.4,60-7,90-10.3c8.8-1,12.5-4.7,11.1-14.1c-2.9-19.5-4.6-39.2-7.5-58.8
			c-3.5-23.3-16.4-40-37.4-50.6c-7.1-3.6-13.6-4.1-21.3-0.1c-20.9,11-43.4,13-64.2,2c-15.4-8.1-26.2-3.5-37.7,5.3
			c-15,11.6-23.9,26.8-26.2,45.7c-2.3,18.3-4.2,36.7-7,55c-1.4,9.4,1.1,14.3,11,15.4C340.2,640,369.8,643.6,399.9,647.1z
			 M400.6,388.8c-31.5-0.1-56.3,24.1-56.7,55.4c-0.4,31.8,24.4,57.3,56,57.6c31.4,0.3,56.8-25.2,56.7-56.9
			C456.4,413.5,431.9,388.9,400.6,388.8z"/>
		<path d="M400,668c-31.7,0-63.2-3-94.5-9c-22.8-4.4-31.6-16.5-28.5-39.4c0.7-5.1,1.5-10.2,2.2-15.2c1.6-10.6,3.3-21.5,4.1-32.2
			c2.7-36.8,20-63,52.8-80.1c-15.2-22.5-19-46.5-11.3-71.4c5.1-16.8,15.5-30.6,30.6-41.1c29.4-20.2,70-17.9,96.8,5.6
			c30.5,26.8,35.1,63.5,13.3,106.3c2.1,1.6,4.3,3.1,6.5,4.6c6.1,4.3,12.4,8.7,17.9,13.8c14.9,13.9,23.8,31.9,26.5,53.6
			c0.9,7.3,1.8,14.6,2.7,21.8c1.3,10.9,2.7,22.2,4.2,33.3c3.2,24.2-5.1,35.9-28.7,40.3C463.3,665,431.6,668,400,668z M400.1,371
			c-14.7,0-29.3,4.2-41.8,12.9c-14.2,9.8-23.9,22.7-28.7,38.4c-7.4,24.2-3.3,47.6,12.3,69.4l1.7,2.4l-2.6,1.3
			c-32.8,16.2-50,41.5-52.6,77.3c-0.8,10.9-2.5,21.9-4.1,32.6c-0.8,4.9-1.5,10.1-2.2,15.1c-2.8,20.4,4.1,29.9,24.5,33.8
			c61.9,11.9,124.9,11.9,187.3,0c21-4,27.5-13.1,24.6-34.8c-1.4-11.1-2.8-22.4-4.2-33.3c-0.9-7.3-1.8-14.6-2.7-21.8
			c-2.6-20.5-11-37.5-25-50.6c-5.3-4.9-11.4-9.2-17.4-13.4c-2.7-1.9-5.6-3.9-8.3-5.9l-1.7-1.3l1-1.9c10.9-20.7,15.4-40,13.5-57.2
			c-1.9-17.1-10.2-32.2-24.7-44.9C435.2,377.1,417.7,371,400.1,371z M399.9,649.6l-0.3,0c-8.5-1-16.9-2-25.3-3
			c-21-2.5-42.7-5-63.9-7.3c-5.3-0.6-9-2.2-11.2-5.1c-2.3-3-3-7.2-2-13.1c1.9-12.7,3.5-25.6,5-38.1c0.7-5.6,1.3-11.2,2-16.8
			c2.4-19.4,11.6-35.4,27.2-47.4c7-5.4,12.7-8.3,18.4-9.5c7.1-1.4,14.2-0.2,22,3.9c19,10,40.4,9.3,61.9-2c8-4.2,15.3-4.2,23.6,0
			c22.1,11.3,35.2,28.9,38.7,52.5c1.5,9.9,2.7,20.1,3.8,29.9c1.1,9.5,2.3,19.3,3.7,28.9c0.8,5.2,0.1,9.1-2,11.9
			c-2.2,2.8-5.8,4.4-11.2,5c-21.7,2.4-43.7,4.9-65,7.4c-8.3,1-16.6,1.9-25,2.9L399.9,649.6z M355.4,513.6c-7.4,0-13.9,3.6-21,9
			c-14.5,11.2-23,26-25.3,44.1c-0.7,5.6-1.4,11.2-2,16.8c-1.5,12.6-3.1,25.6-5,38.3c-0.7,4.5-0.4,7.5,1.1,9.3
			c1.3,1.7,3.8,2.8,7.7,3.2c21.3,2.3,43,4.9,64,7.3c8.3,1,16.7,2,25.1,2.9c8.2-0.9,16.4-1.9,24.7-2.9c21.3-2.5,43.4-5,65.1-7.4
			c4-0.4,6.5-1.5,7.8-3.1c1.3-1.6,1.6-4.3,1.1-8.1c-1.4-9.7-2.6-19.5-3.7-29c-1.1-9.8-2.3-19.9-3.8-29.7
			c-3.3-21.9-15.4-38.3-36-48.8c-6.9-3.5-12.4-3.5-19-0.1c-23,12.1-46,12.8-66.6,2C364.3,514.8,359.7,513.6,355.4,513.6z
			 M400.4,504.3c-0.2,0-0.4,0-0.6,0c-15.9-0.1-30.7-6.4-41.7-17.6c-11.1-11.3-17-26.4-16.8-42.5c0.4-32.5,26.3-57.8,58.9-57.8
			c0.1,0,0.2,0,0.3,0c32.7,0.1,58.4,25.9,58.5,58.6c0.1,16.1-6.2,31.2-17.5,42.4C430.5,498.3,415.9,504.3,400.4,504.3z M400.3,391.3
			c-29.9,0-53.5,23.2-53.9,52.9c-0.2,14.8,5.3,28.6,15.4,39c10,10.3,23.6,16,38.1,16.1c14.4,0.1,28-5.4,38.2-15.5
			c10.4-10.3,16-24.1,16-38.9c-0.1-29.9-23.6-53.5-53.5-53.6C400.5,391.3,400.4,391.3,400.3,391.3z"/>
	</g>
	<g>
		<path d="M597.5,410.5c-3-1.5-9.1-3.1-13.2-6.8c-14.6-13.1-28.5-12.7-42.7,0.2c-2.1,1.9-4.9,4.2-7.5,4.3
			c-5.9,0.4-13.7,1.7-17.5-1.4c-4.2-3.5-8.4-12.9-6.5-17c10.7-24.3,2.6-40.1-17.9-54.5c-12.1-8.4-6.6-25.4,8.1-28.4
			c8.2-1.7,17-0.5,25-2.4c4.8-1.1,10.1-5,12.7-9.1c4.2-6.6,5.2-15.4,9.8-21.7c3.5-4.8,10.4-10.1,15.7-10c5.3,0.1,14,5.7,15.1,10.3
			c6,24.7,19.9,35.3,45.6,33c4.8-0.4,12.9,6.8,14.9,12.2c1.6,4.6-1.7,14.4-5.9,17c-21.1,13.1-26.3,29.5-17.1,52.6
			C620.4,400.5,611.8,410.4,597.5,410.5z M563.4,290c-5.3,28.3-22.1,39.5-50.7,37.1c26,14.4,29.1,34.5,18.4,58.6
			c12.4-5.5,22.6-13.5,32.8-13.6c9.8,0,19.7,8.3,29,12.7c-1-11.4-5.4-23.6-2.1-33.3c3.2-9.5,14.2-16.3,24-26.6
			C585.4,330,569.8,317.9,563.4,290z"/>
		<path d="M597,413l-0.5-0.3c-0.7-0.4-1.7-0.8-2.9-1.2c-3.2-1.2-7.5-3-10.9-5.9c-13.5-12.1-26-12-39.4,0.2c-2.4,2.2-5.7,4.8-9.1,5
			c-1,0.1-2,0.1-3,0.2c-5.8,0.5-12.3,1-16.2-2.2c-4.7-3.8-9.8-14.3-7.3-20c9.5-21.5,4.5-36.4-17.1-51.4c-6-4.2-8.7-10.7-7.3-17.5
			c1.6-7.7,8-13.7,16.3-15.4c4.1-0.8,8.3-1,12.4-1.1c4.4-0.2,8.6-0.3,12.5-1.2c4.1-1,8.9-4.4,11.2-8.1c1.8-2.9,3-6.3,4.3-9.8
			c1.5-4.1,3-8.4,5.6-12c3.9-5.4,11.5-11.1,17.7-11c6.1,0.1,16.1,6.3,17.5,12.2c5.7,23.7,19,33.2,42.9,31.1
			c6.1-0.6,15.2,7.5,17.5,13.9c2.1,5.8-1.7,16.8-6.9,20c-20.1,12.4-24.9,27.2-16.1,49.6c2.3,5.7,1.8,11.5-1.4,16.1
			c-3.8,5.6-10.8,8.9-19.3,8.9L597,413z M563.1,391.7c7.7,0,15.3,3.4,22.9,10.2c2.7,2.4,6.4,3.8,9.4,5c1,0.4,1.9,0.8,2.7,1.1
			c6.5-0.2,11.9-2.6,14.6-6.7c2.2-3.3,2.5-7.3,0.9-11.5c-9.6-24.4-3.8-42,18.2-55.6c3.1-1.9,6.1-10.6,4.8-14
			c-1.6-4.6-8.6-10.6-12.1-10.6c-0.1,0-0.2,0-0.2,0c-26.6,2.4-41.9-8.7-48.2-34.9c-0.8-3.3-8.4-8.4-12.7-8.4c0,0-0.1,0-0.1,0
			c-4.2,0-10.4,4.6-13.5,8.9c-2.2,3-3.5,6.8-4.9,10.7c-1.3,3.7-2.6,7.5-4.8,10.8c-3,4.8-8.9,9-14.2,10.2c-4.5,1.1-9.1,1.2-13.5,1.4
			c-4.1,0.1-7.9,0.3-11.6,1c-6.4,1.3-11.3,5.8-12.4,11.5c-1,4.8,0.9,9.4,5.3,12.4c23.4,16.3,29.2,34.1,18.8,57.6
			c-1.2,2.8,2.2,11.1,5.8,14.1c2.4,1.9,8.1,1.4,12.6,1.1c1.1-0.1,2.1-0.2,3.1-0.2c2.1-0.1,5.1-2.8,6-3.7
			C547.6,395.2,555.3,391.7,563.1,391.7z M526.1,390.5l2.7-5.9c11.2-25.1,5.7-42.7-17.3-55.3l-10.3-5.7l11.7,1
			c27.8,2.4,43.1-8.7,48-35l2.2-11.8l2.7,11.7c6.3,27.6,21.3,37.8,48.4,32.9l7.5-1.3l-5.2,5.5c-3.2,3.4-6.5,6.4-9.7,9.2
			c-6.3,5.7-11.8,10.7-13.8,16.5c-2.1,6.1-0.7,13.5,0.7,21.4c0.6,3.5,1.3,7.2,1.6,10.8l0.4,4.4l-4-1.9c-2.9-1.4-5.9-3.1-8.8-4.8
			c-6.4-3.7-13-7.6-19.1-7.6c0,0,0,0,0,0c-6.4,0-12.9,3.5-20.4,7.6c-3.6,1.9-7.3,4-11.3,5.7L526.1,390.5z M521.8,329.9
			c17.1,12.5,21.7,29.2,14,50.7c1.8-0.9,3.5-1.9,5.2-2.8c7.8-4.2,15.2-8.2,22.8-8.2c0,0,0,0,0,0c7.5,0,14.7,4.2,21.6,8.3
			c1.5,0.9,2.9,1.7,4.3,2.5c-0.3-1.9-0.6-3.8-1-5.7c-1.4-8.2-2.9-16.6-0.5-23.9c2.4-7,8.3-12.4,15.2-18.6c1.4-1.2,2.8-2.5,4.1-3.8
			c-22.1,1.8-36.6-7.6-44.1-28.7C557.2,319.4,543.4,329.3,521.8,329.9z"/>
	</g>
	<g>
		<path d="M435.3,281.2c-3-1.5-9.1-3.1-13.2-6.8c-14.6-13.1-28.5-12.7-42.7,0.2c-2.1,1.9-4.9,4.2-7.5,4.3
			c-5.9,0.4-13.7,1.7-17.5-1.4c-4.2-3.5-8.4-12.9-6.5-17c10.7-24.3,2.6-40.1-17.9-54.5c-12.1-8.4-6.6-25.4,8.1-28.4
			c8.2-1.7,17-0.5,25-2.4c4.8-1.1,10.1-5,12.7-9.1c4.2-6.6,5.2-15.4,9.8-21.7c3.5-4.8,10.4-10.1,15.7-10c5.3,0.1,14,5.7,15.1,10.3
			c6,24.7,19.9,35.3,45.6,33c4.8-0.4,12.9,6.8,14.9,12.2c1.6,4.6-1.7,14.4-5.9,17c-21.1,13.1-26.3,29.5-17.1,52.6
			C458.2,271.1,449.6,281.1,435.3,281.2z M401.2,160.6c-5.3,28.3-22.1,39.5-50.7,37.1c26,14.4,29.1,34.5,18.4,58.6
			c12.4-5.5,22.6-13.5,32.8-13.6c9.8,0,19.7,8.3,29,12.7c-1-11.4-5.4-23.6-2.1-33.3c3.2-9.5,14.2-16.3,24-26.6
			C423.2,200.7,407.6,188.5,401.2,160.6z"/>
		<path d="M434.8,283.7l-0.5-0.3c-0.7-0.4-1.7-0.8-2.9-1.2c-3.2-1.2-7.5-3-10.9-5.9c-13.5-12.1-26-12-39.4,0.2
			c-2.4,2.2-5.7,4.8-9.1,5c-1,0.1-2,0.1-3,0.2c-5.8,0.5-12.3,1-16.2-2.2c-4.7-3.8-9.8-14.3-7.3-20c9.5-21.5,4.5-36.4-17.1-51.4
			c-6-4.2-8.7-10.7-7.3-17.5c1.6-7.7,8-13.7,16.3-15.4c4.1-0.8,8.3-1,12.4-1.1c4.4-0.2,8.6-0.3,12.6-1.2c4.1-1,8.9-4.4,11.2-8.1
			c1.8-2.9,3-6.3,4.3-9.8c1.5-4.1,3-8.4,5.6-12c3.9-5.4,11.3-11,17.6-11c0,0,0.1,0,0.1,0c6.1,0.1,16.1,6.3,17.5,12.2
			c5.7,23.7,19,33.2,42.9,31.1c6.1-0.6,15.2,7.5,17.5,13.9c2.1,5.8-1.7,16.8-6.9,20c-20.1,12.4-24.9,27.2-16.1,49.5
			c2.3,5.7,1.8,11.5-1.4,16.1c-3.8,5.6-10.8,8.9-19.3,8.9L434.8,283.7z M400.9,262.3c7.7,0,15.3,3.4,22.9,10.2
			c2.7,2.4,6.4,3.8,9.4,5c1,0.4,1.9,0.8,2.7,1.1c6.5-0.2,11.9-2.6,14.6-6.7c2.2-3.3,2.5-7.3,0.9-11.5c-9.6-24.4-3.8-42,18.2-55.6
			c3.1-1.9,6.1-10.6,4.8-14c-1.6-4.6-8.6-10.6-12.1-10.6c-0.1,0-0.2,0-0.2,0c-26.6,2.4-41.9-8.7-48.2-34.9
			c-0.8-3.3-8.4-8.4-12.7-8.4c0,0-0.1,0-0.1,0c-4.2,0-10.4,4.6-13.5,8.9c-2.2,3-3.5,6.8-4.9,10.7c-1.3,3.7-2.6,7.4-4.8,10.8
			c-3,4.8-8.9,9-14.2,10.2c-4.5,1.1-9.1,1.2-13.5,1.4c-4,0.1-7.9,0.3-11.6,1c-6.4,1.3-11.3,5.8-12.4,11.5c-1,4.8,0.9,9.4,5.3,12.4
			c23.4,16.3,29.2,34.1,18.8,57.6c-1.2,2.8,2.2,11.1,5.8,14.1c2.4,1.9,8.1,1.4,12.6,1.1c1.1-0.1,2.1-0.2,3.1-0.2
			c2.1-0.1,5.1-2.8,6-3.7C385.4,265.8,393.1,262.3,400.9,262.3z M363.9,261.2l2.7-5.9c11.2-25.1,5.7-42.7-17.3-55.3l-10.3-5.7
			l11.7,1c27.8,2.4,43.1-8.7,48-35l2.2-11.8l2.7,11.7c6.3,27.6,21.3,37.8,48.4,32.9l7.5-1.3l-5.2,5.5c-3.2,3.4-6.5,6.4-9.7,9.2
			c-6.3,5.7-11.8,10.7-13.8,16.5c-2.1,6.1-0.7,13.5,0.7,21.4c0.6,3.5,1.3,7.2,1.6,10.8l0.4,4.4l-4-1.9c-2.9-1.4-5.9-3.1-8.8-4.8
			c-6.4-3.7-13-7.6-19.1-7.6c0,0,0,0,0,0c-6.4,0-12.9,3.5-20.4,7.6c-3.6,1.9-7.3,4-11.3,5.7L363.9,261.2z M359.6,200.5
			c17.1,12.5,21.7,29.2,14,50.7c1.8-0.9,3.5-1.9,5.2-2.8c7.8-4.2,15.2-8.2,22.8-8.2c0,0,0,0,0,0c7.5,0,14.7,4.2,21.6,8.3
			c1.5,0.9,2.9,1.7,4.3,2.5c-0.3-1.9-0.6-3.8-1-5.7c-1.4-8.2-2.9-16.6-0.5-23.9c2.4-7,8.3-12.4,15.2-18.6c1.4-1.2,2.8-2.5,4.1-3.8
			c-22.1,1.8-36.6-7.6-44.1-28.7C395,190,381.2,200,359.6,200.5z"/>
	</g>
	<g>
		<path d="M270.7,402.2c-6.5-3.7-16-8.3-24.4-14.3c-7-4.9-12.4-4.7-19,0.2c-6.1,4.5-12.5,9.2-19.5,11.5c-5.3,1.7-13.6,2-17.3-1
			c-4.3-3.5-8.5-12.8-6.7-17c10.4-24.1,3.7-40.9-17.7-54.6c-3.9-2.5-6.6-11.9-5-16.4c1.8-5.1,9.2-11.9,13.9-11.7
			c25,1.2,40.9-7.6,46.6-33.5c1-4.5,10.2-10.4,15.3-10c5.7,0.4,14.5,6.1,15.8,11.1c6,23.3,18.9,34,43.5,32.1
			c5.4-0.4,14.2,6.5,16.3,12c1.7,4.7-2.1,15.2-6.7,18c-21.5,12.9-24.1,29.7-16,51.8C294,392,285.3,402.2,270.7,402.2z M289.7,318.7
			c-37.3-6-37.3-6-54.6-39c-4.8,28.9-20.8,41.2-49.5,36.5c9.6,10.4,20.6,17.4,23.7,27c3.1,9.7-1.7,21.9-2.9,32.6
			c10.1-4.6,20.3-12.8,30.4-12.8c10.1,0,20.2,8.3,32.7,14.1C257.7,352.3,261.5,332.5,289.7,318.7z"/>
		<path d="M270.1,404.7l-0.6-0.3c-1.8-1-3.9-2.1-6.1-3.3c-5.8-3.1-12.4-6.7-18.6-11.1c-6-4.2-10.2-4.2-16.1,0.2l-0.1,0.1
			c-6.2,4.6-12.7,9.3-20,11.7c-6.2,2-15.2,2.2-19.6-1.4c-4.7-3.8-9.9-14.2-7.5-19.9c9.5-22.1,4.4-38-16.8-51.5
			c-5.1-3.2-7.8-14.1-6-19.3c2.1-6.1,10.4-13.6,16.4-13.3c25.7,1.2,38.9-8.2,44-31.5c1.3-6,12-12.4,17.9-12
			c6.5,0.4,16.5,6.8,18.1,13c5.9,22.9,18.2,32,40.9,30.2c6.8-0.5,16.5,7.4,18.8,13.7c2.2,5.9-2.2,17.6-7.7,21
			c-18.9,11.3-23.3,25.9-15,48.8c2.1,5.8,1.5,11.5-1.8,16.2c-3.9,5.6-11.1,8.9-19.6,9L270.1,404.7z M236.9,381.9
			c3.5,0,7.1,1.4,10.9,4c6,4.2,12.4,7.7,18.1,10.7c2,1.1,3.9,2.1,5.6,3c6.6-0.2,12-2.6,14.9-6.8c2.3-3.3,2.7-7.4,1.2-11.6
			c-9.2-25.2-4-42.1,17.1-54.8c3.5-2.1,7-11.3,5.6-14.9c-1.7-4.7-9.7-10.7-13.7-10.4c-25,1.9-39.6-8.8-46.1-33.9
			c-0.9-3.7-8.7-8.9-13.6-9.3c-4-0.3-12,4.9-12.7,8.1c-5.6,25.5-21.3,36.7-49.1,35.4c-3.2-0.2-9.9,5.7-11.4,10
			c-1.2,3.5,1.2,11.7,3.9,13.5c23.3,14.8,29.2,33.1,18.7,57.7c-1.2,2.8,2.3,11.1,6,14.1c2.8,2.3,10.1,2.1,14.9,0.6
			c6.6-2.2,12.7-6.6,18.6-11l0.1-0.1C229.7,383.3,233.3,381.9,236.9,381.9z M274.6,382.3l-6.2-2.9c-4-1.9-7.8-4-11.4-6
			c-7.5-4.2-14-7.8-20.2-7.9c0,0,0,0,0,0c-6.4,0-13.3,3.9-19.9,7.6c-3.1,1.7-6.3,3.5-9.4,5l-4,1.8l0.5-4.4c0.4-3.4,1.1-6.9,1.8-10.3
			c1.6-7.5,3.2-15.2,1.2-21.3c-1.9-5.9-7.3-10.9-13.7-16.8c-3.1-2.9-6.4-5.9-9.5-9.3l-4.9-5.3l7.2,1.2c13.7,2.3,24.1,0.6,31.8-5.2
			c7.6-5.6,12.5-15.5,14.8-29.3l1.2-7.4l3.5,6.6c8.5,16.1,12.7,24.2,19.1,28.8c6.4,4.5,15.5,6,33.7,8.9l7.8,1.3l-7.1,3.5
			c-25.3,12.4-31.2,29.4-19.1,55.1L274.6,382.3z M236.7,360.6C236.8,360.6,236.8,360.6,236.7,360.6c7.6,0,15,4.1,22.7,8.5
			c1.6,0.9,3.3,1.9,5,2.8c-8.4-22.5-2.6-39.5,17.6-51.8c-28.9-4.8-32.3-7.3-46-33c-2.9,11.6-8.1,20.2-15.3,25.5
			c-7.3,5.4-16.8,7.7-28.4,6.9c1.4,1.4,2.9,2.7,4.3,4c6.5,6.1,12.7,11.8,15,18.9c2.4,7.4,0.6,15.7-1.1,23.8c-0.4,1.8-0.7,3.5-1,5.2
			c1.6-0.9,3.2-1.8,4.8-2.7C221.6,364.7,229,360.6,236.7,360.6z"/>
	</g>
</g>
</svg>
