<?xml version="1.0" encoding="utf-8"?>
<!-- Generator: Adobe Illustrator 24.2.1, SVG Export Plug-In . SVG Version: 6.00 Build 0)  -->
<svg version="1.1" id="Capa_1" xmlns="http://www.w3.org/2000/svg" xmlns:xlink="http://www.w3.org/1999/xlink" x="0px" y="0px"
	 viewBox="0 0 800 800" style="enable-background:new 0 0 800 800;" xml:space="preserve">
<path d="M126.9,702.2c9.5-4.1,18.9-8.1,32.2-13.8c0-16.8,0-38,0-59.2c0-1.6,0-3.1,0-4.7c-0.1-38.8-2-36,34-35.6
	c2.1,0,4.1-0.4,8.4-0.9c0-14.4,0.7-29-0.2-43.4c-0.9-14.7,5.2-19.7,19.4-18.8c13.5,0.9,27,0.2,42.6,0.2c0-27.9,0-54.4,0-80.9
	c0-70.8,0.1-141.5-0.1-212.3c0-13.6,0.9-25.5,21.7-20.8c0-7.7,0-13.8,0-19.9c0.1-22.1,0.6-22.6,23.3-22.7c5.6,0,11.3,0,18.2,0
	c0.4-6.6,0.9-11.7,0.9-16.8c0.2-25.7,0.2-25.7,26.6-25.8c10.5,0,20.9-0.2,31.4-0.4c1,0,1.9-0.7,5-2c0-8.4-1-17.8,0.4-26.8
	c0.7-4.5,5.9-8.2,9.1-12.2c3.6,4.2,9.4,7.9,10.3,12.6c1.7,8.5,0.5,17.5,0.5,28.9c15.2,0,29.1-0.1,43,0c18.5,0.1,20.3,2.1,20,21.1
	c-0.1,6.2,0,12.5,0,21.4c9.2,0,17.3,0.3,25.4-0.1c12.8-0.6,18.4,4.9,17.4,17.8c-0.6,7.2-0.1,14.5-0.1,23.1
	c19.6-1.7,21.8,9.1,21.7,25.2c-0.7,91.7-0.4,183.5-0.3,275.2c0,4.6,0.5,9.2,0.9,15.3c13.7,0,26.7,0,39.7,0c20.6,0,21.5,1,21.3,21
	c-0.2,13.5,0,27,0,42c10,0,18.3,0.2,26.5-0.1c12.2-0.4,16.5,5.5,16.4,17.3c-0.4,28.7-0.1,57.4-0.1,85.8c34,4.6,35.1,5.6,25.7,22.8
	c-180.4,0-360.8,0-541.2,0C126.9,710.5,126.9,706.3,126.9,702.2z M513.8,547.9c-75.8,0-150.8,0-225.7,0c0,48.8,0,96.6,0,144.5
	c1.6,0.2,3.2,0.5,4.8,0.7c1-4.2,2.8-8.4,2.9-12.6c0.4-14.7,0.3-29.3,0.1-44c-0.3-20.5,9.1-35.3,27-44.2c17.1-8.5,31.4-1.4,44.2,10.2
	c0.6,0.6,1.9,0.4,2.9,0.6c24.3-19.2,33.2-19.2,63,0.3c13.3-12.6,28.5-20.2,46.6-10.5c18.3,9.8,26.6,25.7,25.7,46.7
	c-0.6,14.6-0.4,29.3,0.1,44c0.1,3.3,2.9,6.5,4.5,9.8c1.3-0.4,2.6-0.8,3.8-1.3C513.8,644.7,513.8,597.3,513.8,547.9z M619.9,692
	c0-27.8,0-54.2,0-80.4c-27.8,0-54.5,0-81.3,0c0,27.6,0,53.6,0,80.4C565.9,692,592.3,692,619.9,692z M180.9,691.6
	c28.2,0,54.9,0,81.6,0c0-27.3,0-53.3,0-80.3c-27.6,0-54.4,0-81.6,0C180.9,638.5,180.9,664.5,180.9,691.6z M494.1,190.6
	c-62.8,0-124.7,0-187.1,0c0,6.9,0,12.9,0,19.4c62.8,0,124.8,0,187.1,0C494.1,203.2,494.1,197.2,494.1,190.6z M443.7,691.8
	c14.2,0,26.9,0,40.6,0c0-21.2,0.7-41.5-0.3-61.7c-0.5-11.5-7.2-19.6-20-19.8c-11.6-0.2-19.7,5.6-20.1,17.3
	C443.1,648.7,443.7,670,443.7,691.8z M357.6,692c0-21.7,0.1-41.5-0.1-61.3c-0.1-11.4-5.4-19-17.3-20.3c-12.3-1.3-21.6,4.5-22.4,16.5
	c-1.4,21.6-0.4,43.3-0.4,65.1C331.2,692,343.5,692,357.6,692z M420.4,692.1c0-22,0.4-42.9-0.2-63.6c-0.3-11.7-7.6-18-19.4-18.2
	c-11.7-0.2-19.5,5.9-19.9,17.5c-0.8,21.2-0.2,42.4-0.2,64.3C394.4,692.1,406.2,692.1,420.4,692.1z M453.3,149.1
	c-36.1,0-70.3,0-105.5,0c0.3,6.7,0.5,12.1,0.8,17.8c35.4,0,69.2,0,103.9,0C452.8,160.8,453,155.7,453.3,149.1z M370.1,284.8
	c0,28.8,0,55.9,0,82.5c7,0,13,0,19,0c0-28,0-55,0-82.5C382.2,284.8,376.7,284.8,370.1,284.8z M411.6,285c0,28.6,0,55.1,0,82.5
	c6.8,0,12.8,0,19.3,0c0-27.8,0-55.2,0-82.5C424.1,285,418.5,285,411.6,285z M578.1,588c0-13.5,0-26.3,0-39.8c-13.7,0-26.4,0-39.2,0
	c0,13.9,0,26.7,0,39.8C552.6,588,564.9,588,578.1,588z M222.8,588c14,0,26.4,0,39.6,0c0-13.5,0-26.3,0-39.7c-13.6,0-26.2,0-39.6,0
	C222.8,561.9,222.8,574.2,222.8,588z M286.9,367.2c6.7,0,12.6,0,18.2,0c0-28,0-54.9,0-82.1c-6.5,0-11.9,0-18.2,0
	C286.9,313.1,286.9,339.9,286.9,367.2z M328.4,284.8c0,28.4,0,55.3,0,82.5c6.9,0,12.7,0,18.2,0c0-28.1,0-55,0-82.5
	C340.3,284.8,335.2,284.8,328.4,284.8z M473.1,285.5c-6.2,0-12,0-18.5,0c0,27.7,0,55,0,83c6.9-0.3,12.4-0.6,18.5-0.8
	C473.1,339.9,473.1,313.3,473.1,285.5z M513.9,367.8c0-28.5,0-55.3,0-82.7c-6.6,0-12,0-17.7,0c0,28.2,0,55.5,0,82.7
	C502.5,367.8,507.6,367.8,513.9,367.8z M389.3,451.7c0-21.6,0-41.2,0-61.1c-7,0-13,0-19,0c0,21.1,0,41.1,0,61.1
	C377.1,451.7,382.6,451.7,389.3,451.7z M430.8,451.7c0-20.2,0-40.7,0-60.8c-6.7,0-12.7,0-19,0c0,20.8,0,40.4,0,60.8
	C418.4,451.7,424,451.7,430.8,451.7z M495.8,451.4c6.9,0,12.3,0,18.3,0c0-20.8,0-40.5,0-60.9c-6.5,0-11.9,0-18.3,0
	C495.8,410.9,495.8,430.6,495.8,451.4z M453.8,451.3c6.3,0,12.2,0,18.9,0c0-20.4,0-40.4,0-60.2c-6.9,0-12.8,0-18.9,0
	C453.8,411.6,453.8,430.8,453.8,451.3z M347.1,389.6c-7.4,0.4-12.8,0.6-18.3,0.9c0,21.3,0,41.2,0,61c6.9,0,12.3,0,18.3,0
	C347.1,430.8,347.1,411.2,347.1,389.6z M287.2,390.5c0,21.5,0,41,0,61.3c6.5,0,12,0,18.1,0c0-20.8,0-40.8,0-61.3
	C299,390.5,293.5,390.5,287.2,390.5z M370.3,474.2c0,17.4,0,34.3,0,51c6.8,0,12.5,0,19.1,0c0-17.1,0-33.5,0-51
	C382.7,474.2,376.8,474.2,370.3,474.2z M411.6,474c0,18.1,0,34.2,0,51c6.8,0,12.8,0,19.2,0c0-17.4,0-34.3,0-51
	C424.1,474,418.5,474,411.6,474z M287.3,473.9c0,18.2,0,34.6,0,51.1c6.7,0,12.2,0,17.6,0c0-17.7,0-34.5,0-51.1
	C298.5,473.9,293.4,473.9,287.3,473.9z M328.5,473.7c0,18.1,0,34.5,0,50.9c7,0,12.9,0,18,0c0-17.7,0-34.1,0-50.9
	C340.1,473.7,335,473.7,328.5,473.7z M472.2,525.4c0-18.1,0-34.9,0-52.4c-7,0.4-12.5,0.7-17.7,0.9c0,18.2,0,34.7,0,51.5
	C460.8,525.4,466,525.4,472.2,525.4z M496.1,473.9c0,17.8,0,34.6,0,52c6.7-0.3,12.2-0.6,17.8-0.8c0-17.7,0-34.1,0-51.2
	C507.8,473.9,502.7,473.9,496.1,473.9z M411.8,233.7c0,9.9,0,19,0,29c6.9,0,12.9,0,19.5,0c0-10.1,0-19.3,0-29
	C424.5,233.7,418.5,233.7,411.8,233.7z M389.3,262.9c0-10.5,0-19.6,0-29.1c-7,0-13,0-19.4,0c0,10,0,19.2,0,29.1
	C376.4,262.9,382,262.9,389.3,262.9z M287.6,262.8c6.1,0,11.6,0,17.4,0c0-10.3,0-19.8,0-28.9c-6.7,0-12.2,0-18.9,0
	c0,7.6-0.1,14.3,0.1,21C286.2,257.3,287,259.8,287.6,262.8z M495.8,262.9c21,1.1,23.4-3.5,16.9-29.1c-5.5,0-10.9,0-16.9,0
	C495.8,243.7,495.8,252.8,495.8,262.9z M472.7,263c0-10.8,0-19.9,0-29.3c-6.6,0-12.1,0-18,0c0,10.2,0,19.6,0,29.3
	C461.2,263,466.3,263,472.7,263z M347.3,233.7c-7.3,0-12.8,0-18.4,0c0,10.3,0,19.7,0,30c7-0.3,12.5-0.6,18.4-0.9
	C347.3,252.4,347.3,243.7,347.3,233.7z"/>
<text transform="matrix(1 0 0 1 -1078.1049 6254.5483)" style="font-family:'BebasNeue'; font-size:189.692px;">INVERSIÓN</text>
<text transform="matrix(1 0 0 1 -960.9745 7398.3877)" style="font-family:'BebasNeue'; font-size:189.692px;">BECAS</text>
<path d="M1219.6,6358.7c1.9-7.5,3.5-15.2,5.6-22.6c16.4-58.8,70.6-101.8,131.8-103.7c29.3-0.9,58.6-0.5,87.8-0.4
	c13.4,0.1,22,8.1,22.3,19.8c0.3,12.1-8.5,20.7-22.4,20.9c-30.5,0.5-61.2-1.3-91.5,1.5c-52.4,4.8-88.3,44.4-92,97.9
	c-1.2,17.9-12.5,28.3-26.8,23.3c-5.7-2-10-7.8-14.9-11.9C1219.6,6375.2,1219.6,6366.9,1219.6,6358.7z"/>
<path d="M1591,6272.7c0-20.3-0.1-38.8,0-57.3c0.1-15.8,8.1-25.2,21-24.9c12.3,0.2,20.2,9.4,20.4,24.5c0.2,18.5,0.1,37,0.1,57.7
	c11.2,0,21.7,0,32.2,0c10.3,0,20.7-0.5,30.9,0.4c11.5,1,19.2,9.9,19.2,20.5c-0.1,11.1-8.5,20-20.6,20.4c-16.1,0.5-32.2,0.1-48.3,0.2
	c-4,0-8,0-13.4,0c0,20-0.1,38.9,0,57.7c0,10.9-3.5,19.7-14.3,23.5c-13.5,4.8-26.7-4.9-27-20.1c-0.4-19.7-0.1-39.5-0.1-61.1
	c-20.2,0-39.8,0.2-59.4-0.1c-14.3-0.2-22.8-8-22.9-20.4c-0.1-12.4,8.4-20.6,22.6-20.9C1550.7,6272.5,1570,6272.7,1591,6272.7z"/>
<g>
	<path d="M396.9,7116.2c8.3,0,16.6,0,24.9,0c1.8,0.8,3.6,1.9,5.5,2.3c36.8,8.4,61.7,30.4,71.7,66.8c10,36.3,0.2,68.1-27.1,94.2
		c-1.9,1.8-3.7,3.9-4.2,4.4c13.6,12.4,28.1,22.8,38.6,36.2c10.8,13.7,17.8,30.4,26.4,45.9c17.7,0,36.8,0,55.9,0
		c18.5,0.1,23,4.4,23.1,22.5c0.1,12.8,0,25.6,0,39.4c12.9,0.3,25.7-1.1,32,12.4c0,44,0,88.1,0,132.1c-5.2,9.4-13.1,12.2-23.7,12.2
		c-140.8-0.3-281.6-0.2-422.3-0.2c-17.3,0-22.4-5.1-22.5-22.1c-0.1-34.5,0-68.9,0-103.4c0-28.1,0.6-28.8,28.7-31.3
		c0.7-0.1,1.3-0.9,2.9-2c0-12.6-0.1-25.8,0-39c0.1-15.8,5-20.6,20.9-20.8c19.9-0.1,39.7,0,60.7,0c9.5-35.3,31.5-62.2,64.5-80.4
		c-3.3-3.1-5.4-5-7.5-7.1c-26.6-26.1-35.8-57.6-26-93.3c9.9-35.9,34.5-57.6,70.5-66.4C392.5,7118.1,394.7,7117,396.9,7116.2z
		 M498.8,7374c-6.2-39.7-49.7-72.5-93.2-70.3c-42.6,2.2-83.7,36.8-85.1,72.5c40,13,67.2,41.5,88.1,77.8
		C444.8,7403,445.1,7402.7,498.8,7374z M611.2,7457.4c-32.4,2.7-63.5,3.7-94,8.3c-26.8,4-51.6,15.2-72.3,33.6
		c-15.9,14.1-23.4,31.3-18.9,52.8c62.1,0,123.3,0,185.2,0C611.2,7521.5,611.2,7491.4,611.2,7457.4z M207.5,7552.2
		c62.7,0,124,0,185.6,0c4.5-27.1-8.2-45.3-28.4-59.5c-30.1-21.2-64.6-29.7-100.7-32.1c-18.8-1.2-37.8-0.2-56.6-0.2
		C207.5,7491.8,207.5,7521.5,207.5,7552.2z M409.1,7148.3c-34.7,0.1-62.3,28-62.1,62.6c0.3,33.8,28.1,61.6,61.9,61.9
		c34.1,0.3,62.7-28.2,62.7-62.4C471.8,7175.8,443.9,7148.2,409.1,7148.3z M374.9,7461.5c-16.8-44.1-81.7-73-136.5-62.4
		c0,9.2,0,18.5,0,28.8C286.4,7428.4,331.7,7437.7,374.9,7461.5z M580.4,7399.1c-63.1-10.5-115.6,19.2-136.9,63.2
		c43.2-26.4,89.1-33.5,136.9-34.3C580.4,7417.6,580.4,7408.3,580.4,7399.1z"/>
</g>
</svg>
