<?xml version="1.0" encoding="utf-8"?>
<!-- Generator: Adobe Illustrator 24.2.1, SVG Export Plug-In . SVG Version: 6.00 Build 0)  -->
<svg version="1.1" id="Capa_1" xmlns="http://www.w3.org/2000/svg" xmlns:xlink="http://www.w3.org/1999/xlink" x="0px" y="0px"
	 viewBox="0 0 800 800" style="enable-background:new 0 0 800 800;" xml:space="preserve">
<text transform="matrix(1 0 0 1 -1078.1049 6254.5483)" style="font-family:'BebasNeue'; font-size:189.692px;">INVERSIÓN</text>
<text transform="matrix(1 0 0 1 -960.9745 7398.3877)" style="font-family:'BebasNeue'; font-size:189.692px;">BECAS</text>
<path d="M1219.6,6358.7c1.9-7.5,3.5-15.2,5.6-22.6c16.4-58.8,70.6-101.8,131.8-103.7c29.3-0.9,58.6-0.5,87.8-0.4
	c13.4,0.1,22,8.1,22.3,19.8c0.3,12.1-8.5,20.7-22.4,20.9c-30.5,0.5-61.2-1.3-91.5,1.5c-52.4,4.8-88.3,44.4-92,97.9
	c-1.2,17.9-12.5,28.3-26.8,23.3c-5.7-2-10-7.8-14.9-11.9C1219.6,6375.2,1219.6,6366.9,1219.6,6358.7z"/>
<path d="M1591,6272.7c0-20.3-0.1-38.8,0-57.3c0.1-15.8,8.1-25.2,21-24.9c12.3,0.2,20.2,9.4,20.4,24.5c0.2,18.5,0.1,37,0.1,57.7
	c11.2,0,21.7,0,32.2,0c10.3,0,20.7-0.5,30.9,0.4c11.5,1,19.2,9.9,19.2,20.5c-0.1,11.1-8.5,20-20.6,20.4c-16.1,0.5-32.2,0.1-48.3,0.2
	c-4,0-8,0-13.4,0c0,20-0.1,38.9,0,57.7c0,10.9-3.5,19.7-14.3,23.5c-13.5,4.8-26.7-4.9-27-20.1c-0.4-19.7-0.1-39.5-0.1-61.1
	c-20.2,0-39.8,0.2-59.4-0.1c-14.3-0.2-22.8-8-22.9-20.4c-0.1-12.4,8.4-20.6,22.6-20.9C1550.7,6272.5,1570,6272.7,1591,6272.7z"/>
<g>
	<path d="M396.9,7116.2c8.3,0,16.6,0,24.9,0c1.8,0.8,3.6,1.9,5.5,2.3c36.8,8.4,61.7,30.4,71.7,66.8c10,36.3,0.2,68.1-27.1,94.2
		c-1.9,1.8-3.7,3.9-4.2,4.4c13.6,12.4,28.1,22.8,38.6,36.2c10.8,13.7,17.8,30.4,26.4,45.9c17.7,0,36.8,0,55.9,0
		c18.5,0.1,23,4.4,23.1,22.5c0.1,12.8,0,25.6,0,39.4c12.9,0.3,25.7-1.1,32,12.4c0,44,0,88.1,0,132.1c-5.2,9.4-13.1,12.2-23.7,12.2
		c-140.8-0.3-281.6-0.2-422.3-0.2c-17.3,0-22.4-5.1-22.5-22.1c-0.1-34.5,0-68.9,0-103.4c0-28.1,0.6-28.8,28.7-31.3
		c0.7-0.1,1.3-0.9,2.9-2c0-12.6-0.1-25.8,0-39c0.1-15.8,5-20.6,20.9-20.8c19.9-0.1,39.7,0,60.7,0c9.5-35.3,31.5-62.2,64.5-80.4
		c-3.3-3.1-5.4-5-7.5-7.1c-26.6-26.1-35.8-57.6-26-93.3c9.9-35.9,34.5-57.6,70.5-66.4C392.5,7118.1,394.7,7117,396.9,7116.2z
		 M498.8,7374c-6.2-39.7-49.7-72.5-93.2-70.3c-42.6,2.2-83.7,36.8-85.1,72.5c40,13,67.2,41.5,88.1,77.8
		C444.8,7403,445.1,7402.7,498.8,7374z M611.2,7457.4c-32.4,2.7-63.5,3.7-94,8.3c-26.8,4-51.6,15.2-72.3,33.6
		c-15.9,14.1-23.4,31.3-18.9,52.8c62.1,0,123.3,0,185.2,0C611.2,7521.5,611.2,7491.4,611.2,7457.4z M207.5,7552.2
		c62.7,0,124,0,185.6,0c4.5-27.1-8.2-45.3-28.4-59.5c-30.1-21.2-64.6-29.7-100.7-32.1c-18.8-1.2-37.8-0.2-56.6-0.2
		C207.5,7491.8,207.5,7521.5,207.5,7552.2z M409.1,7148.3c-34.7,0.1-62.3,28-62.1,62.6c0.3,33.8,28.1,61.6,61.9,61.9
		c34.1,0.3,62.7-28.2,62.7-62.4C471.8,7175.8,443.9,7148.2,409.1,7148.3z M374.9,7461.5c-16.8-44.1-81.7-73-136.5-62.4
		c0,9.2,0,18.5,0,28.8C286.4,7428.4,331.7,7437.7,374.9,7461.5z M580.4,7399.1c-63.1-10.5-115.6,19.2-136.9,63.2
		c43.2-26.4,89.1-33.5,136.9-34.3C580.4,7417.6,580.4,7408.3,580.4,7399.1z"/>
</g>
<g>
	<path d="M569.1,433.3c0,70.3,0,140.6,0,210.9c-5.2,9.5-12.8,13.1-23.9,13.1c-97-0.4-194.1-0.2-291.1-0.2c-17.9,0-23-4.9-23-22.7
		c-0.1-63-0.3-125.9,0-188.9c0.2-46.9,30.2-77.1,76.9-77.7c29.9-0.4,59.8-0.1,89.8-0.1c31.6,0,63.3-0.3,94.9,0.1
		c39.6,0.5,66,22.5,74.4,61C567.3,430.4,568.4,431.8,569.1,433.3z M456.3,400c-3,22-14.5,36.5-34.2,44.5
		c13.1,31.9,25.5,62.8,38.6,93.5c4.8,11.2,3,19.4-6.2,27.2c-13.4,11.3-26.1,23.5-39.2,35.2c-13,11.6-18.4,11.5-31.8-0.5
		C371,588.8,359,577,346.1,566.5c-10.7-8.7-12.4-17.6-6.8-30.3c13.2-30.1,25.1-60.6,37.4-90.9c-23.9-14.7-26.5-18.1-34.6-45.4
		c-10.8,0-21.9,0-33,0c-30,0.1-45.7,15.8-45.8,46c-0.1,55.3,0,110.6,0,165.9c0,4.1,0,8.2,0,12.5c91.6,0,181.3,0,270.7,0
		c0.7-1.4,1.5-2.1,1.5-2.9c0.1-61.7,0.6-123.4-0.1-185.1c-0.2-19.3-17.5-35.1-37.1-36.1C484.8,399.4,471.1,400,456.3,400z
		 M400.6,570.3c7.7-7,15.5-13.6,22.8-20.7c2-2,4.2-6.3,3.4-8.3c-8.3-21.3-17.1-42.3-27.2-66.6c-6.2,15.2-11.2,27.2-16.1,39.3
		c-13.5,32.9-13.5,32.9,14.3,55.2C398.2,569.4,398.6,569.4,400.6,570.3z M375.7,400.4c5.5,13.5,15.3,16,26.3,15.1
		c9.4-0.7,18.2-3.1,20.9-15.1C407.2,400.4,392.4,400.4,375.7,400.4z"/>
	<path d="M415.1,142.7c6.5,2,13,3.8,19.3,6.1c48.6,17.3,77.2,67.4,67.6,118.7c-9.5,51.1-55.9,86.4-110.1,83.8
		c-50.2-2.4-91.1-43.4-96.1-96.6c-4.7-49.2,29.5-96.5,78.9-109c3.2-0.8,6.4-2,9.6-3C394.5,142.7,404.8,142.7,415.1,142.7z
		 M327.7,246.8c-0.1,40.3,32.4,73,72.3,72.8c39.5-0.2,71.6-32.5,71.7-72.1c0.1-40.4-31.9-72.6-72.3-72.5
		C359.7,175,327.8,207,327.7,246.8z"/>
</g>
</svg>
