<svg version="1.2" xmlns="http://www.w3.org/2000/svg" xmlns:xlink="http://www.w3.org/1999/xlink" overflow="visible" preserveAspectRatio="none" viewBox="0 0 950.9999999999999 827" width="950.9999999999999" height="827"><g transform="translate(0, 0)"><defs><path id="path-161837142577726569" d="M410.5904761904764 0 C410.5904761904764 0 1361.5904761904765 0 1361.5904761904765 0 C1361.5904761904765 0 977.1650793650792 827.0000000000011 977.1650793650792 827.0000000000011 C977.1650793650792 827.0000000000011 410.5904761904764 827.0000000000011 410.5904761904764 827.0000000000011 C410.5904761904764 827.0000000000011 410.5904761904764 0 410.5904761904764 0 Z" vector-effect="non-scaling-stroke"/><linearGradient id="gradient-161837142580426749" x1="99%" y1="59%" x2="1%" y2="41%" vector-effect="non-scaling-stroke"><stop offset="5%" stop-color="rgb(204,82,22)" stop-opacity="1" vector-effect="non-scaling-stroke"/><stop offset="100%" stop-color="rgb(255,103,27)" stop-opacity="1" vector-effect="non-scaling-stroke"/></linearGradient></defs><g transform="translate(-410.5904761904763, 0)"><path style="stroke: rgb(140, 140, 140); stroke-width: 0px; stroke-linecap: butt; stroke-linejoin: miter; fill: url(&quot;#gradient-161837142580426749&quot;);" d="M410.5904761904764 0 C410.5904761904764 0 1361.5904761904765 0 1361.5904761904765 0 C1361.5904761904765 0 977.1650793650792 827.0000000000011 977.1650793650792 827.0000000000011 C977.1650793650792 827.0000000000011 410.5904761904764 827.0000000000011 410.5904761904764 827.0000000000011 C410.5904761904764 827.0000000000011 410.5904761904764 0 410.5904761904764 0 Z" vector-effect="non-scaling-stroke"/></g></g></svg>