<svg version="1.2" xmlns="http://www.w3.org/2000/svg" xmlns:xlink="http://www.w3.org/1999/xlink" overflow="visible" preserveAspectRatio="none" viewBox="0 0 158 20.00000000000003" width="158" height="20.00000000000003"><g transform="translate(0, 0)"><g transform="translate(0, 0) rotate(0)"><path style="stroke-width: 0px; stroke-linecap: butt; stroke-linejoin: miter; fill: rgb(0, 0, 0);" d="M38.19045,0h-6.05599v20h12.63077v-4.93767h-6.57478zM72.35664,14.77144h-3.82492c-1.93291,0 -2.41081,-0.44714 -2.41081,-2.06034v-12.7111h-6.11562v12.88564c0,4.23787 0.29901,7.11436 6.11562,7.11436h12.29172v-20h-6.05599zM15.95734,5.03408h14.40437v-5.03408h-14.40437zM52.1757,0h-6.11562v20h12.65036v-4.93767h-6.53474zM15.95734,20h14.40437v-4.93767h-8.34753v-2.5266h8.34753v-5.09225h-14.40437zM0,10.00914c0,3.67354 2.37077,9.99086 9.54272,9.99086h5.18026v-4.93684h-1.35448c-3.64603,0 -6.77327,-1.02975 -6.77327,-5.24684c0,-3.61536 3.58555,-4.66506 6.8329,-4.66506h1.29485v-5.15043h-3.58555c-6.83375,-0.00083 -11.13743,4.2362 -11.13743,10.00831zM100.62615,0l5.89669,15.41223h-5.47927l2.17143,-7.96875h-5.17941l-3.98508,12.55652h20.04294l-6.8133,-20zM143.15862,0h-9.28374v5.03408h8.80669c2.58885,0 4.24234,2.37118 4.24234,4.9759c0,2.70196 -1.93205,5.40309 -6.93342,5.22856v-7.79422h-6.11647v12.55568h7.98975c2.41081,0 5.17941,-0.62168 7.29121,-1.8858c2.29069,-1.43783 3.94504,-4.76147 3.94504,-8.2987c-0.05963,-2.70196 -0.99669,-5.28674 -3.10764,-7.46343c-1.65434,-1.73039 -4.18356,-2.35206 -6.83375,-2.35206zM127.22087,0h-12.11283v20h6.11647v-14.96592h3.16813c1.95165,0 2.01128,0 2.01128,2.07945v12.88647h6.57563v-14.96592c0,-3.499 -1.59471,-5.03408 -5.75868,-5.03408zM86.163,0h-6.05684v20h12.65036v-4.93767h-6.59352zM158,1.86586c0,-0.52443 -0.39783,-0.79621 -1.25481,-0.79621h-1.1347v2.95379h0.55713v-1.2633h0.57672l0.61761,1.2633h0.6372l-0.69683,-1.36054c0.45916,-0.07812 0.69769,-0.36985 0.69769,-0.79704zM156.68556,2.40941h-0.51709v-0.97158h0.51794c0.4992,0 0.73687,0.15625 0.73687,0.4862c-0.00085,0.3499 -0.23853,0.48537 -0.73772,0.48537z" vector-effect="non-scaling-stroke"/></g><defs><path id="path-161898626703059048" d="M38.19045,0h-6.05599v20h12.63077v-4.93767h-6.57478zM72.35664,14.77144h-3.82492c-1.93291,0 -2.41081,-0.44714 -2.41081,-2.06034v-12.7111h-6.11562v12.88564c0,4.23787 0.29901,7.11436 6.11562,7.11436h12.29172v-20h-6.05599zM15.95734,5.03408h14.40437v-5.03408h-14.40437zM52.1757,0h-6.11562v20h12.65036v-4.93767h-6.53474zM15.95734,20h14.40437v-4.93767h-8.34753v-2.5266h8.34753v-5.09225h-14.40437zM0,10.00914c0,3.67354 2.37077,9.99086 9.54272,9.99086h5.18026v-4.93684h-1.35448c-3.64603,0 -6.77327,-1.02975 -6.77327,-5.24684c0,-3.61536 3.58555,-4.66506 6.8329,-4.66506h1.29485v-5.15043h-3.58555c-6.83375,-0.00083 -11.13743,4.2362 -11.13743,10.00831zM100.62615,0l5.89669,15.41223h-5.47927l2.17143,-7.96875h-5.17941l-3.98508,12.55652h20.04294l-6.8133,-20zM143.15862,0h-9.28374v5.03408h8.80669c2.58885,0 4.24234,2.37118 4.24234,4.9759c0,2.70196 -1.93205,5.40309 -6.93342,5.22856v-7.79422h-6.11647v12.55568h7.98975c2.41081,0 5.17941,-0.62168 7.29121,-1.8858c2.29069,-1.43783 3.94504,-4.76147 3.94504,-8.2987c-0.05963,-2.70196 -0.99669,-5.28674 -3.10764,-7.46343c-1.65434,-1.73039 -4.18356,-2.35206 -6.83375,-2.35206zM127.22087,0h-12.11283v20h6.11647v-14.96592h3.16813c1.95165,0 2.01128,0 2.01128,2.07945v12.88647h6.57563v-14.96592c0,-3.499 -1.59471,-5.03408 -5.75868,-5.03408zM86.163,0h-6.05684v20h12.65036v-4.93767h-6.59352zM158,1.86586c0,-0.52443 -0.39783,-0.79621 -1.25481,-0.79621h-1.1347v2.95379h0.55713v-1.2633h0.57672l0.61761,1.2633h0.6372l-0.69683,-1.36054c0.45916,-0.07812 0.69769,-0.36985 0.69769,-0.79704zM156.68556,2.40941h-0.51709v-0.97158h0.51794c0.4992,0 0.73687,0.15625 0.73687,0.4862c-0.00085,0.3499 -0.23853,0.48537 -0.73772,0.48537z" vector-effect="non-scaling-stroke"/></defs></g></svg>