<svg version="1.2" xmlns="http://www.w3.org/2000/svg" xmlns:xlink="http://www.w3.org/1999/xlink" overflow="visible" preserveAspectRatio="none" viewBox="0 0 111.0000115993095 94" width="111.0000115993095" height="94"><g transform="translate(0, 0)"><g transform="translate(0.0000015993095045319441, 0) rotate(0)"><path d="M51.1783,55.52797c0,-7.05321 -5.7644,-12.82401 -12.80979,-12.82401h-14.9234c-3.52269,0 -6.40489,-2.8854 -6.40489,-6.41201v-2.11596c0,-9.42565 7.62182,-17.05594 17.10107,-17.05594h4.22723c2.30576,-0.06412 4.22723,-1.9236 4.29128,-4.29604v-8.52797c-0.06405,-2.37244 -1.92147,-4.23192 -4.29128,-4.29604h-4.22723c-4.54747,0 -9.09495,0.89768 -13.25813,2.69304c-8.19826,3.46248 -14.73125,10.00273 -18.1899,18.2101c-1.85742,4.1678 -2.7541,8.72033 -2.69006,13.27285v47c0,7.05321 5.7644,12.82401 12.80979,12.82401v0h25.61957c7.04538,0 12.80979,-5.77081 12.80979,-12.82401v-25.64802v0zM110.93596,55.52797c0,-7.05321 -5.7644,-12.82401 -12.80979,-12.82401h-14.9234c-3.52269,0 -6.40489,-2.8854 -6.40489,-6.41201v-2.11596c0.06405,-9.42565 7.68587,-17.05594 17.10107,-17.05594h4.29128c2.36981,-0.06412 4.22723,-1.9236 4.29128,-4.29604v-8.52797c-0.06405,-2.37244 -1.92147,-4.23192 -4.29128,-4.29604h-4.29128c-4.54747,0 -9.09495,0.89768 -13.25813,2.69304c-8.19826,3.46248 -14.73125,10.00273 -18.1899,18.2101c-1.85742,4.1678 -2.7541,8.72033 -2.69006,13.27285v47c0,7.05321 5.7644,12.82401 12.80979,12.82401h25.61957c7.04538,0 12.80979,-5.77081 12.80979,-12.82401v-25.64802v0z" style="stroke-width: 0; stroke-linecap: butt; stroke-linejoin: miter; fill: rgba(255, 103, 27, 0.1);" vector-effect="non-scaling-stroke"/></g><defs><path id="path-161995211309442" d="M51.1783,55.52797c0,-7.05321 -5.7644,-12.82401 -12.80979,-12.82401h-14.9234c-3.52269,0 -6.40489,-2.8854 -6.40489,-6.41201v-2.11596c0,-9.42565 7.62182,-17.05594 17.10107,-17.05594h4.22723c2.30576,-0.06412 4.22723,-1.9236 4.29128,-4.29604v-8.52797c-0.06405,-2.37244 -1.92147,-4.23192 -4.29128,-4.29604h-4.22723c-4.54747,0 -9.09495,0.89768 -13.25813,2.69304c-8.19826,3.46248 -14.73125,10.00273 -18.1899,18.2101c-1.85742,4.1678 -2.7541,8.72033 -2.69006,13.27285v47c0,7.05321 5.7644,12.82401 12.80979,12.82401v0h25.61957c7.04538,0 12.80979,-5.77081 12.80979,-12.82401v-25.64802v0zM110.93596,55.52797c0,-7.05321 -5.7644,-12.82401 -12.80979,-12.82401h-14.9234c-3.52269,0 -6.40489,-2.8854 -6.40489,-6.41201v-2.11596c0.06405,-9.42565 7.68587,-17.05594 17.10107,-17.05594h4.29128c2.36981,-0.06412 4.22723,-1.9236 4.29128,-4.29604v-8.52797c-0.06405,-2.37244 -1.92147,-4.23192 -4.29128,-4.29604h-4.29128c-4.54747,0 -9.09495,0.89768 -13.25813,2.69304c-8.19826,3.46248 -14.73125,10.00273 -18.1899,18.2101c-1.85742,4.1678 -2.7541,8.72033 -2.69006,13.27285v47c0,7.05321 5.7644,12.82401 12.80979,12.82401h25.61957c7.04538,0 12.80979,-5.77081 12.80979,-12.82401v-25.64802v0z" vector-effect="non-scaling-stroke"/></defs></g></svg>