<?xml version="1.0" encoding="utf-8"?>
<!-- Generator: Adobe Illustrator 24.2.1, SVG Export Plug-In . SVG Version: 6.00 Build 0)  -->
<svg version="1.1" id="Capa_1" xmlns="http://www.w3.org/2000/svg" xmlns:xlink="http://www.w3.org/1999/xlink" x="0px" y="0px"
	 viewBox="0 0 800 800" style="enable-background:new 0 0 800 800;" xml:space="preserve">
<text transform="matrix(1 0 0 1 -1078.1049 6254.5483)" style="font-family:'BebasNeue'; font-size:189.692px;">INVERSIÓN</text>
<text transform="matrix(1 0 0 1 -960.9745 7398.3877)" style="font-family:'BebasNeue'; font-size:189.692px;">BECAS</text>
<path d="M1219.6,6358.7c1.9-7.5,3.5-15.2,5.6-22.6c16.4-58.8,70.6-101.8,131.8-103.7c29.3-0.9,58.6-0.5,87.8-0.4
	c13.4,0.1,22,8.1,22.3,19.8c0.3,12.1-8.5,20.7-22.4,20.9c-30.5,0.5-61.2-1.3-91.5,1.5c-52.4,4.8-88.3,44.4-92,97.9
	c-1.2,17.9-12.5,28.3-26.8,23.3c-5.7-2-10-7.8-14.9-11.9C1219.6,6375.2,1219.6,6366.9,1219.6,6358.7z"/>
<path d="M1591,6272.7c0-20.3-0.1-38.8,0-57.3c0.1-15.8,8.1-25.2,21-24.9c12.3,0.2,20.2,9.4,20.4,24.5c0.2,18.5,0.1,37,0.1,57.7
	c11.2,0,21.7,0,32.2,0c10.3,0,20.7-0.5,30.9,0.4c11.5,1,19.2,9.9,19.2,20.5c-0.1,11.1-8.5,20-20.6,20.4c-16.1,0.5-32.2,0.1-48.3,0.2
	c-4,0-8,0-13.4,0c0,20-0.1,38.9,0,57.7c0,10.9-3.5,19.7-14.3,23.5c-13.5,4.8-26.7-4.9-27-20.1c-0.4-19.7-0.1-39.5-0.1-61.1
	c-20.2,0-39.8,0.2-59.4-0.1c-14.3-0.2-22.8-8-22.9-20.4c-0.1-12.4,8.4-20.6,22.6-20.9C1550.7,6272.5,1570,6272.7,1591,6272.7z"/>
<g>
	<path d="M396.9,7116.2c8.3,0,16.6,0,24.9,0c1.8,0.8,3.6,1.9,5.5,2.3c36.8,8.4,61.7,30.4,71.7,66.8c10,36.3,0.2,68.1-27.1,94.2
		c-1.9,1.8-3.7,3.9-4.2,4.4c13.6,12.4,28.1,22.8,38.6,36.2c10.8,13.7,17.8,30.4,26.4,45.9c17.7,0,36.8,0,55.9,0
		c18.5,0.1,23,4.4,23.1,22.5c0.1,12.8,0,25.6,0,39.4c12.9,0.3,25.7-1.1,32,12.4c0,44,0,88.1,0,132.1c-5.2,9.4-13.1,12.2-23.7,12.2
		c-140.8-0.3-281.6-0.2-422.3-0.2c-17.3,0-22.4-5.1-22.5-22.1c-0.1-34.5,0-68.9,0-103.4c0-28.1,0.6-28.8,28.7-31.3
		c0.7-0.1,1.3-0.9,2.9-2c0-12.6-0.1-25.8,0-39c0.1-15.8,5-20.6,20.9-20.8c19.9-0.1,39.7,0,60.7,0c9.5-35.3,31.5-62.2,64.5-80.4
		c-3.3-3.1-5.4-5-7.5-7.1c-26.6-26.1-35.8-57.6-26-93.3c9.9-35.9,34.5-57.6,70.5-66.4C392.5,7118.1,394.7,7117,396.9,7116.2z
		 M498.8,7374c-6.2-39.7-49.7-72.5-93.2-70.3c-42.6,2.2-83.7,36.8-85.1,72.5c40,13,67.2,41.5,88.1,77.8
		C444.8,7403,445.1,7402.7,498.8,7374z M611.2,7457.4c-32.4,2.7-63.5,3.7-94,8.3c-26.8,4-51.6,15.2-72.3,33.6
		c-15.9,14.1-23.4,31.3-18.9,52.8c62.1,0,123.3,0,185.2,0C611.2,7521.5,611.2,7491.4,611.2,7457.4z M207.5,7552.2
		c62.7,0,124,0,185.6,0c4.5-27.1-8.2-45.3-28.4-59.5c-30.1-21.2-64.6-29.7-100.7-32.1c-18.8-1.2-37.8-0.2-56.6-0.2
		C207.5,7491.8,207.5,7521.5,207.5,7552.2z M409.1,7148.3c-34.7,0.1-62.3,28-62.1,62.6c0.3,33.8,28.1,61.6,61.9,61.9
		c34.1,0.3,62.7-28.2,62.7-62.4C471.8,7175.8,443.9,7148.2,409.1,7148.3z M374.9,7461.5c-16.8-44.1-81.7-73-136.5-62.4
		c0,9.2,0,18.5,0,28.8C286.4,7428.4,331.7,7437.7,374.9,7461.5z M580.4,7399.1c-63.1-10.5-115.6,19.2-136.9,63.2
		c43.2-26.4,89.1-33.5,136.9-34.3C580.4,7417.6,580.4,7408.3,580.4,7399.1z"/>
</g>
<g>
	<path d="M650.7,655.9c-167.1,0-334.2,0-501.2,0c-9.3-5.2-12.6-13.2-12-23.8c0.7-9.9-1.4-20.3,0.7-29.8c2-9.2,6.2-19.2,12.5-26
		c5.7-6.1,8.8-11.1,9.1-19.5c0.8-22.8,14.3-39.7,36.5-45c8.8-2.1,10.2-6.2,10.2-13.9c-0.3-50.8-0.1-101.7-0.2-152.5
		c0-3.1-0.5-6.1-0.8-10.5c-6.5,0-12.3,0.1-18.1,0c-15.7-0.3-21-5.5-21.2-21.4c-0.1-8.6-0.3-17.3,0-25.9
		c1.3-36.7,18.3-63.4,52.3-77.3c50.7-20.8,101.9-40.4,153-60.5c18-7.1,36.3-8,54.5-0.8c52.7,20.7,105.5,41.2,158,62.4
		c23.2,9.3,40,26.5,45.4,50.8c4.2,18.7,3.9,38.6,4,58c0.1,9-6.8,14.5-16.5,14.6c-7.5,0.1-14.9,0-23.1,0c0,57.3-0.2,112.2,0.4,167.1
		c0,3.2,5.7,8.1,9.7,9.3c21.3,6.7,35.4,22.4,36.2,44.2c0.4,9.4,3.7,15.2,10.2,21.9c6.1,6.3,9.7,16.1,11.5,25
		c2,9.6,0.1,19.9,0.7,29.9C663.3,642.7,660,650.7,650.7,655.9z M199.5,301c134.3,0,267.7,0,401.1,0c2.6-34.6-7.4-50.9-38.1-63.2
		c-46.2-18.5-92.6-36.7-138.7-55.4c-16.1-6.5-31.3-6.5-47.4,0c-46.1,18.8-92.5,36.9-138.7,55.4C206.8,250.2,197.1,266,199.5,301z
		 M172,622.1c152,0,304.1,0,456.2,0c4-22.5,3.3-23.4-17.8-23.4c-140.2,0-280.3,0-420.5,0C168.6,598.7,167.9,599.6,172,622.1z
		 M607,565.6c0.9-17.1-4.1-23.6-19-23.7c-125.2-0.2-250.4-0.2-375.6,0c-15.7,0-21.2,7.5-18.4,23.7
		C331.3,565.6,468.6,565.6,607,565.6z M344.2,508.4c0-58,0-115.3,0-172.7c-13,0-25,0-37.6,0c0,58.1,0,115.3,0,172.7
		C319.8,508.4,331.8,508.4,344.2,508.4z M450.4,335.3c0,58.5,0,115.7,0,173.1c13,0,25.1,0,37.6,0c0-58.1,0-115.3,0-173.1
		C475.2,335.3,463.5,335.3,450.4,335.3z M378.7,508.3c12.9,0,24.9,0,36.8,0c0-58.1,0-115.4,0-172.7c-12.8,0-24.4,0-36.8,0
		C378.7,393.2,378.7,450.1,378.7,508.3z M559.9,508.4c0-58.4,0-115.6,0-172.5c-13.2,0-25.2,0-37.5,0c0,57.9,0,114.8,0,172.5
		C535.2,508.4,547.2,508.4,559.9,508.4z M272,336c-11.4,0-21.9,0-32.3,0c0,58,0,115,0,172.1c11.3,0,21.9,0,32.3,0
		C272,450.1,272,393.2,272,336z"/>
	<path d="M399.6,285.8c-25.4-0.2-45.7-20.5-45.8-45.8c-0.1-25.6,21.3-46.9,46.7-46.6c25,0.3,45.7,21.2,45.8,46.2
		C446.4,265.3,425.6,285.9,399.6,285.8z M415.6,242.9c0-2.1,0-4.2,0-6.2c-5.3-3.5-11.1-10.3-15.8-9.6c-5,0.8-11.4,8.1-12.4,13.5
		c-0.6,3.3,7.7,11.4,12.3,11.6C404.8,252.4,410.3,246.3,415.6,242.9z"/>
</g>
</svg>
