<?xml version="1.0" encoding="utf-8"?>
<!-- Generator: Adobe Illustrator 24.2.1, SVG Export Plug-In . SVG Version: 6.00 Build 0)  -->
<svg version="1.1" id="Capa_1" xmlns="http://www.w3.org/2000/svg" xmlns:xlink="http://www.w3.org/1999/xlink" x="0px" y="0px"
	 viewBox="0 0 800 800" style="enable-background:new 0 0 800 800;" xml:space="preserve">
<style type="text/css">
	.st0{fill:#010101;}
</style>
<text transform="matrix(1 0 0 1 -1078.1049 6254.5483)" style="font-family:'BebasNeue'; font-size:189.692px;">INVERSIÓN</text>
<text transform="matrix(1 0 0 1 -960.9745 7398.3877)" style="font-family:'BebasNeue'; font-size:189.692px;">BECAS</text>
<path d="M1219.6,6358.7c1.9-7.5,3.5-15.2,5.6-22.6c16.4-58.8,70.6-101.8,131.8-103.7c29.3-0.9,58.6-0.5,87.8-0.4
	c13.4,0.1,22,8.1,22.3,19.8c0.3,12.1-8.5,20.7-22.4,20.9c-30.5,0.5-61.2-1.3-91.5,1.5c-52.4,4.8-88.3,44.4-92,97.9
	c-1.2,17.9-12.5,28.3-26.8,23.3c-5.7-2-10-7.8-14.9-11.9C1219.6,6375.2,1219.6,6366.9,1219.6,6358.7z"/>
<path d="M1591,6272.7c0-20.3-0.1-38.8,0-57.3c0.1-15.8,8.1-25.2,21-24.9c12.3,0.2,20.2,9.4,20.4,24.5c0.2,18.5,0.1,37,0.1,57.7
	c11.2,0,21.7,0,32.2,0c10.3,0,20.7-0.5,30.9,0.4c11.5,1,19.2,9.9,19.2,20.5c-0.1,11.1-8.5,20-20.6,20.4c-16.1,0.5-32.2,0.1-48.3,0.2
	c-4,0-8,0-13.4,0c0,20-0.1,38.9,0,57.7c0,10.9-3.5,19.7-14.3,23.5c-13.5,4.8-26.7-4.9-27-20.1c-0.4-19.7-0.1-39.5-0.1-61.1
	c-20.2,0-39.8,0.2-59.4-0.1c-14.3-0.2-22.8-8-22.9-20.4c-0.1-12.4,8.4-20.6,22.6-20.9C1550.7,6272.5,1570,6272.7,1591,6272.7z"/>
<g>
	<path d="M396.9,7116.2c8.3,0,16.6,0,24.9,0c1.8,0.8,3.6,1.9,5.5,2.3c36.8,8.4,61.7,30.4,71.7,66.8c10,36.3,0.2,68.1-27.1,94.2
		c-1.9,1.8-3.7,3.9-4.2,4.4c13.6,12.4,28.1,22.8,38.6,36.2c10.8,13.7,17.8,30.4,26.4,45.9c17.7,0,36.8,0,55.9,0
		c18.5,0.1,23,4.4,23.1,22.5c0.1,12.8,0,25.6,0,39.4c12.9,0.3,25.7-1.1,32,12.4c0,44,0,88.1,0,132.1c-5.2,9.4-13.1,12.2-23.7,12.2
		c-140.8-0.3-281.6-0.2-422.3-0.2c-17.3,0-22.4-5.1-22.5-22.1c-0.1-34.5,0-68.9,0-103.4c0-28.1,0.6-28.8,28.7-31.3
		c0.7-0.1,1.3-0.9,2.9-2c0-12.6-0.1-25.8,0-39c0.1-15.8,5-20.6,20.9-20.8c19.9-0.1,39.7,0,60.7,0c9.5-35.3,31.5-62.2,64.5-80.4
		c-3.3-3.1-5.4-5-7.5-7.1c-26.6-26.1-35.8-57.6-26-93.3c9.9-35.9,34.5-57.6,70.5-66.4C392.5,7118.1,394.7,7117,396.9,7116.2z
		 M498.8,7374c-6.2-39.7-49.7-72.5-93.2-70.3c-42.6,2.2-83.7,36.8-85.1,72.5c40,13,67.2,41.5,88.1,77.8
		C444.8,7403,445.1,7402.7,498.8,7374z M611.2,7457.4c-32.4,2.7-63.5,3.7-94,8.3c-26.8,4-51.6,15.2-72.3,33.6
		c-15.9,14.1-23.4,31.3-18.9,52.8c62.1,0,123.3,0,185.2,0C611.2,7521.5,611.2,7491.4,611.2,7457.4z M207.5,7552.2
		c62.7,0,124,0,185.6,0c4.5-27.1-8.2-45.3-28.4-59.5c-30.1-21.2-64.6-29.7-100.7-32.1c-18.8-1.2-37.8-0.2-56.6-0.2
		C207.5,7491.8,207.5,7521.5,207.5,7552.2z M409.1,7148.3c-34.7,0.1-62.3,28-62.1,62.6c0.3,33.8,28.1,61.6,61.9,61.9
		c34.1,0.3,62.7-28.2,62.7-62.4C471.8,7175.8,443.9,7148.2,409.1,7148.3z M374.9,7461.5c-16.8-44.1-81.7-73-136.5-62.4
		c0,9.2,0,18.5,0,28.8C286.4,7428.4,331.7,7437.7,374.9,7461.5z M580.4,7399.1c-63.1-10.5-115.6,19.2-136.9,63.2
		c43.2-26.4,89.1-33.5,136.9-34.3C580.4,7417.6,580.4,7408.3,580.4,7399.1z"/>
</g>
<path d="M579.9,633.4c0-106.1,0-212.2,0-318.3c0-49.3,0-98.6,0-148c0-19.3-3-22.1-22.6-22.2c-11.4-0.1-22.9,0.3-34.3-0.1
	c-11.2-0.4-19.3,3.1-23.2,14.3c-1.8,5.2-4.5,10.6-11.2,10.4c-5.9-0.2-8.5-5-10.1-9.7c-4-11.9-12.5-15.7-24.3-15
	c-6.9,0.4-13.9,0.4-20.9,0c-11.1-0.6-19.3,2.9-23.2,14.3c-1.8,5.3-4.5,10.5-11.2,10.2c-5.8-0.2-8.5-4.9-10.1-9.7
	c-4-12.1-12.7-15.5-24.4-14.8c-6.9,0.4-13.9,0.4-20.9,0c-11.3-0.6-19.2,3.4-23.1,14.5c-1.9,5.2-4.7,10.5-11.4,10.1
	c-5.7-0.4-8.3-5.2-9.9-10c-3.8-11.2-11.6-15.1-22.9-14.7c-13.4,0.5-26.8,0.2-40.2,0.1c-7.7-0.1-13.5,2.3-15.7,10.5
	c0,152.2,0,304.5,0,456.7c0,11.9,0.5,23.9-0.2,35.8c-0.4,6.8,1.8,7.6,7.8,7.5c19.3-0.4,38.7-0.2,58-0.2c7.8-1.9,11-7.6,12.8-14.8
	c1.5-5.6,4.4-10.3,11-10.3c6.7,0,9.6,4.7,11,10.3c1.9,7.1,5,12.9,12.8,14.8c13.9,0,27.8,0,41.8,0c7.8-1.9,11-7.6,12.8-14.8
	c1.5-5.6,4.4-10.3,11-10.3c6.7,0,9.6,4.7,11,10.3c1.9,7.1,5,12.9,12.8,14.8c13.9,0,27.8,0,41.8,0c7.8-1.9,11-7.6,12.8-14.8
	c1.5-5.6,4.4-10.3,11-10.3c6.7,0,9.6,4.7,11,10.3c1.9,7.1,5,12.9,12.8,14.8c18.9,0,37.8,0,56.7,0
	C581.2,651.9,579.9,642.3,579.9,633.4z M548.6,340.8c0,50.9-0.2,101.7,0.2,152.6c0.1,9.5-1.9,13.7-12,12.3
	c-5.9-0.8-11.9-0.5-17.9-0.1c-9.3,0.6-15,5.8-14.9,15.2c0.1,8.6,5.6,13.4,14.1,14.6c1,0.1,2,0,3,0.1c8.8,0.7,21.2-4,25.4,1.9
	c4.6,6.3,1.9,18,2,27.4c0.2,17,0.2,33.9-0.1,50.9c-0.1,3.3,2.8,9.2-3.6,9.3c-5.3,0.1-11,2.8-15.9-3.9c-26.2-35.5-53.2-35.2-80.7,0.5
	c-6.7,8.7-7.4,0.8-9.7-2.6c-14.4-21.7-36.5-29.3-57.6-19.6c-9.3,4.3-16.6,10.9-21.1,20.2c-3.6,7.5-6,7.1-10.6,0.2
	c-21.7-32.7-57.5-33.2-78.3-0.6c-4.8,7.5-10.3,6.5-16.3,6c-8.5-0.7-4.2-7.7-4.3-11.7c-0.5-22.4,0.1-44.9-0.4-67.3
	c-0.2-8.2,1.8-11.8,10.5-10.8c6.4,0.7,12.9,0.5,19.4,0c9.2-0.6,15-5.9,14.8-15.3c-0.1-8.6-5.6-13.4-14.1-14.5c-0.5-0.1-1,0-1.5-0.1
	c-9.3-0.7-22.8,4.2-26.8-2c-4.8-7.4-2.1-20-2.1-30.4c-0.1-94.7-0.1-189.5,0.1-284.2c0-4.1-3.9-11,3.5-12.3
	c6.3-1.1,12.3-1.7,17.4,6.4c19.7,31.6,57.2,31.2,77.6-0.6c4.9-7.7,6.6-7.6,11.5,0c20.3,31.7,57.7,32,77.7,0.5
	c5.4-8.5,7-8.1,12.2,0.2c19.4,30.8,57.8,31.2,76.8,0.4c4.9-8,10.6-8.2,17.2-7.1c8.5,1.4,4.1,8.8,4.2,13.2
	C548.7,240.1,548.6,290.4,548.6,340.8z"/>
<path class="st0" d="M400.2,385c5,0,9.9-0.3,14.9,0.1c9.2,0.8,14.8,6.1,14.6,15.4c-0.2,8.5-5.7,13.8-14.2,14.2
	c-9.9,0.5-19.8,0.4-29.7,0.1c-9.2-0.3-15.2-5.4-15.3-14.7c-0.1-9.4,5.7-14.4,14.9-15.1C390.2,384.7,395.2,385,400.2,385z"/>
<path class="st0" d="M400.4,414.9c-5.5,0-11,0.5-16.3-0.1c-8.4-1-13.7-6.1-13.7-14.8c0-8.6,5.2-14.1,13.7-14.7
	c9.9-0.7,19.8-0.3,29.7-0.2c9.3,0.1,15.5,5,15.8,14.2c0.4,10.1-5.9,15.3-15.8,15.7C409.3,415.1,404.8,415,400.4,414.9
	C400.4,415,400.4,414.9,400.4,414.9z"/>
<path d="M504.4,315c-0.1-15.7-7.2-22.2-20.9-18.8c-38,9.4-75.8,19.3-113.8,28.7c-10.5,2.6-14.7,8.7-14.5,19.2
	c0.3,17.4-0.7,34.9,0.3,52.3c0.9,14.1-0.3,23.6-18.1,18.9c-2.6-0.7-5.9,0.6-8.7,1.4c-22.3,6.4-36.4,28-32.7,50.2
	c3.7,22.4,24,38.9,46.5,37.8c23.1-1.1,42-19.9,42.4-43.8c0.6-32.9,0.3-65.8,0.1-98.6c0-6.6,0.5-11.1,8.3-12.9
	c24.1-5.6,48.1-11.8,72.1-18c6.9-1.8,9.7-0.5,9.4,7.5c-0.6,15.4-0.2,30.8-0.2,48c-3.5-0.7-5.9-1.3-8.3-1.5
	c-26.6-2.7-49,15.1-51.2,40.5c-2.2,24.9,17,47.3,41.8,48.8c26.2,1.6,47.3-18.5,47.5-46.2C504.7,390.7,504.6,352.8,504.4,315z
	 M340.1,474.6c-9.2-0.2-14.8-6.1-14.5-15.4c0.3-8.5,5.7-13.9,14.2-14.2c9.4-0.3,14.2,5.6,15.6,14.7
	C354.2,468.7,349.5,474.8,340.1,474.6z M459.4,445.1c-8.9-1.6-14.8-6.4-14.4-15.8c0.4-8.5,5.7-14,14.3-14.1
	c9.3-0.2,15.1,5.4,15.2,14.7C474.5,439.2,468.4,443.9,459.4,445.1z"/>
</svg>
