<?xml version="1.0" encoding="utf-8"?>
<!-- Generator: Adobe Illustrator 24.2.1, SVG Export Plug-In . SVG Version: 6.00 Build 0)  -->
<svg version="1.1" id="Capa_1" xmlns="http://www.w3.org/2000/svg" xmlns:xlink="http://www.w3.org/1999/xlink" x="0px" y="0px"
	 viewBox="0 0 800 800" style="enable-background:new 0 0 800 800;" xml:space="preserve">
<text transform="matrix(1 0 0 1 -1078.1049 6254.5483)" style="font-family:'BebasNeue'; font-size:189.692px;">INVERSIÓN</text>
<text transform="matrix(1 0 0 1 -960.9745 7398.3877)" style="font-family:'BebasNeue'; font-size:189.692px;">BECAS</text>
<path d="M1219.6,6358.7c1.9-7.5,3.5-15.2,5.6-22.6c16.4-58.8,70.6-101.8,131.8-103.7c29.3-0.9,58.6-0.5,87.8-0.4
	c13.4,0.1,22,8.1,22.3,19.8c0.3,12.1-8.5,20.7-22.4,20.9c-30.5,0.5-61.2-1.3-91.5,1.5c-52.4,4.8-88.3,44.4-92,97.9
	c-1.2,17.9-12.5,28.3-26.8,23.3c-5.7-2-10-7.8-14.9-11.9C1219.6,6375.2,1219.6,6366.9,1219.6,6358.7z"/>
<path d="M1591,6272.7c0-20.3-0.1-38.8,0-57.3c0.1-15.8,8.1-25.2,21-24.9c12.3,0.2,20.2,9.4,20.4,24.5c0.2,18.5,0.1,37,0.1,57.7
	c11.2,0,21.7,0,32.2,0c10.3,0,20.7-0.5,30.9,0.4c11.5,1,19.2,9.9,19.2,20.5c-0.1,11.1-8.5,20-20.6,20.4c-16.1,0.5-32.2,0.1-48.3,0.2
	c-4,0-8,0-13.4,0c0,20-0.1,38.9,0,57.7c0,10.9-3.5,19.7-14.3,23.5c-13.5,4.8-26.7-4.9-27-20.1c-0.4-19.7-0.1-39.5-0.1-61.1
	c-20.2,0-39.8,0.2-59.4-0.1c-14.3-0.2-22.8-8-22.9-20.4c-0.1-12.4,8.4-20.6,22.6-20.9C1550.7,6272.5,1570,6272.7,1591,6272.7z"/>
<g>
	<path d="M396.9,7116.2c8.3,0,16.6,0,24.9,0c1.8,0.8,3.6,1.9,5.5,2.3c36.8,8.4,61.7,30.4,71.7,66.8c10,36.3,0.2,68.1-27.1,94.2
		c-1.9,1.8-3.7,3.9-4.2,4.4c13.6,12.4,28.1,22.8,38.6,36.2c10.8,13.7,17.8,30.4,26.4,45.9c17.7,0,36.8,0,55.9,0
		c18.5,0.1,23,4.4,23.1,22.5c0.1,12.8,0,25.6,0,39.4c12.9,0.3,25.7-1.1,32,12.4c0,44,0,88.1,0,132.1c-5.2,9.4-13.1,12.2-23.7,12.2
		c-140.8-0.3-281.6-0.2-422.3-0.2c-17.3,0-22.4-5.1-22.5-22.1c-0.1-34.5,0-68.9,0-103.4c0-28.1,0.6-28.8,28.7-31.3
		c0.7-0.1,1.3-0.9,2.9-2c0-12.6-0.1-25.8,0-39c0.1-15.8,5-20.6,20.9-20.8c19.9-0.1,39.7,0,60.7,0c9.5-35.3,31.5-62.2,64.5-80.4
		c-3.3-3.1-5.4-5-7.5-7.1c-26.6-26.1-35.8-57.6-26-93.3c9.9-35.9,34.5-57.6,70.5-66.4C392.5,7118.1,394.7,7117,396.9,7116.2z
		 M498.8,7374c-6.2-39.7-49.7-72.5-93.2-70.3c-42.6,2.2-83.7,36.8-85.1,72.5c40,13,67.2,41.5,88.1,77.8
		C444.8,7403,445.1,7402.7,498.8,7374z M611.2,7457.4c-32.4,2.7-63.5,3.7-94,8.3c-26.8,4-51.6,15.2-72.3,33.6
		c-15.9,14.1-23.4,31.3-18.9,52.8c62.1,0,123.3,0,185.2,0C611.2,7521.5,611.2,7491.4,611.2,7457.4z M207.5,7552.2
		c62.7,0,124,0,185.6,0c4.5-27.1-8.2-45.3-28.4-59.5c-30.1-21.2-64.6-29.7-100.7-32.1c-18.8-1.2-37.8-0.2-56.6-0.2
		C207.5,7491.8,207.5,7521.5,207.5,7552.2z M409.1,7148.3c-34.7,0.1-62.3,28-62.1,62.6c0.3,33.8,28.1,61.6,61.9,61.9
		c34.1,0.3,62.7-28.2,62.7-62.4C471.8,7175.8,443.9,7148.2,409.1,7148.3z M374.9,7461.5c-16.8-44.1-81.7-73-136.5-62.4
		c0,9.2,0,18.5,0,28.8C286.4,7428.4,331.7,7437.7,374.9,7461.5z M580.4,7399.1c-63.1-10.5-115.6,19.2-136.9,63.2
		c43.2-26.4,89.1-33.5,136.9-34.3C580.4,7417.6,580.4,7408.3,580.4,7399.1z"/>
</g>
<g>
	<path d="M262.4,312.5c0-31.6,0.5-60.8-0.3-89.9c-0.3-10.3,3.2-15.1,12.6-19.3c38.8-17.1,77.1-35.5,115.9-52.7
		c5.4-2.4,13.5-2.5,18.9-0.2c39.6,17.5,78.8,36.1,118.3,53.8c8,3.6,10.4,8.1,10.3,16.6c-0.5,29.6-0.2,59.3-0.2,90.4
		c42.8,0,84.6,0,127.4,0c0,114.1,0,226.6,0,339.8c-176.7,0-353.3,0-530.7,0c0-112.7,0-224.9,0-338.6
		C176.6,312.5,218.4,312.5,262.4,312.5z M511.6,617.4c0.4-2.8,0.8-4.2,0.8-5.5c0-125.6,0.2-251.2-0.3-376.8c0-4.4-4.6-10.7-8.7-12.7
		c-31.2-15-62.7-29.4-94.5-43.3c-5-2.2-12.5-2.2-17.5-0.1c-30.9,13.4-61.3,28.2-92.3,41.6c-9.1,3.9-11.6,8.9-11.6,18.4
		c0.3,121.5,0.2,243,0.2,364.5c0,4.4,0.4,8.8,0.7,13.9C363.2,617.4,437,617.4,511.6,617.4z M160.1,339.1c0,93.6,0,185.6,0,278.2
		c34,0,67,0,100.6,0c0-93.2,0-185.5,0-278.2C226.7,339.1,193.9,339.1,160.1,339.1z M639.7,617.3c0-93.8,0-185.8,0-277.8
		c-34.2,0-67.3,0-100.9,0c0,93,0,185,0,277.8C572.7,617.3,605.8,617.3,639.7,617.3z"/>
	<path d="M389.2,578.1c-21.5,0-41.5,0-62.3,0c0-37.7,0-74.9,0-112.7c20.8,0,41,0,62.3,0C389.2,502.9,389.2,539.9,389.2,578.1z"/>
	<path d="M473.4,578c-21.4,0-41.3,0-62.2,0c0-37.7,0-74.8,0-112.7c20.8,0,41.1,0,62.2,0C473.4,502.8,473.4,539.9,473.4,578z"/>
	<path d="M424,319.1c0-18.4,0-35.6,0-53.5c16.6,0,32.4,0,49.1,0c0,17.8,0,35.3,0,53.5C456.8,319.1,441,319.1,424,319.1z"/>
	<path d="M423.9,417.8c0-17.8,0-35,0-53c16.4,0,32.1,0,49,0c0,17.2,0,34.7,0,53C457.2,417.8,441.4,417.8,423.9,417.8z"/>
	<path d="M326.7,319.1c0-18.3,0-35.4,0-53.3c16.3,0,32,0,48.7,0c0,17.8,0,35.2,0,53.3C359.3,319.1,343.6,319.1,326.7,319.1z"/>
	<path d="M326.8,417.8c0-17.6,0-34.8,0-52.9c16.2,0,32.2,0,49,0c0,17.7,0,34.8,0,52.9C359.8,417.8,344.1,417.8,326.8,417.8z"/>
	<path d="M192.9,554.6c0-18.2,0-35.3,0-53.3c11.9,0,23.2,0,35.5,0c0,17.5,0,35,0,53.3C216.8,554.6,205.5,554.6,192.9,554.6z"/>
	<path d="M192.9,455.1c0-17.9,0-34.9,0-52.9c12.1,0,23.6,0,35.8,0c0,17.9,0,34.9,0,52.9C216.5,455.1,205,455.1,192.9,455.1z"/>
	<path d="M571.9,501.2c11.9,0,23.2,0,35.4,0c0,17.5,0,34.7,0,53c-11.3,0-22.8,0-35.4,0C571.9,536.8,571.9,519.3,571.9,501.2z"/>
	<path d="M571.7,455.1c0-18,0-35,0-53c12.2,0,23.6,0,35.8,0c0,17.9,0,35,0,53C595.8,455.1,584.6,455.1,571.7,455.1z"/>
</g>
</svg>
