<?xml version="1.0" encoding="utf-8"?>
<!-- Generator: Adobe Illustrator 24.2.1, SVG Export Plug-In . SVG Version: 6.00 Build 0)  -->
<svg version="1.1" id="Capa_1" xmlns="http://www.w3.org/2000/svg" xmlns:xlink="http://www.w3.org/1999/xlink" x="0px" y="0px"
	 viewBox="0 0 800 800" style="enable-background:new 0 0 800 800;" xml:space="preserve">
<text transform="matrix(1 0 0 1 -1078.1049 6254.5483)" style="font-family:'BebasNeue'; font-size:189.692px;">INVERSIÓN</text>
<text transform="matrix(1 0 0 1 -960.9745 7398.3877)" style="font-family:'BebasNeue'; font-size:189.692px;">BECAS</text>
<path d="M1219.6,6358.7c1.9-7.5,3.5-15.2,5.6-22.6c16.4-58.8,70.6-101.8,131.8-103.7c29.3-0.9,58.6-0.5,87.8-0.4
	c13.4,0.1,22,8.1,22.3,19.8c0.3,12.1-8.5,20.7-22.4,20.9c-30.5,0.5-61.2-1.3-91.5,1.5c-52.4,4.8-88.3,44.4-92,97.9
	c-1.2,17.9-12.5,28.3-26.8,23.3c-5.7-2-10-7.8-14.9-11.9C1219.6,6375.2,1219.6,6366.9,1219.6,6358.7z"/>
<path d="M1591,6272.7c0-20.3-0.1-38.8,0-57.3c0.1-15.8,8.1-25.2,21-24.9c12.3,0.2,20.2,9.4,20.4,24.5c0.2,18.5,0.1,37,0.1,57.7
	c11.2,0,21.7,0,32.2,0c10.3,0,20.7-0.5,30.9,0.4c11.5,1,19.2,9.9,19.2,20.5c-0.1,11.1-8.5,20-20.6,20.4c-16.1,0.5-32.2,0.1-48.3,0.2
	c-4,0-8,0-13.4,0c0,20-0.1,38.9,0,57.7c0,10.9-3.5,19.7-14.3,23.5c-13.5,4.8-26.7-4.9-27-20.1c-0.4-19.7-0.1-39.5-0.1-61.1
	c-20.2,0-39.8,0.2-59.4-0.1c-14.3-0.2-22.8-8-22.9-20.4s8.4-20.6,22.6-20.9C1550.7,6272.5,1570,6272.7,1591,6272.7z"/>
<g>
	<path d="M396.9,7116.2c8.3,0,16.6,0,24.9,0c1.8,0.8,3.6,1.9,5.5,2.3c36.8,8.4,61.7,30.4,71.7,66.8c10,36.3,0.2,68.1-27.1,94.2
		c-1.9,1.8-3.7,3.9-4.2,4.4c13.6,12.4,28.1,22.8,38.6,36.2c10.8,13.7,17.8,30.4,26.4,45.9c17.7,0,36.8,0,55.9,0
		c18.5,0.1,23,4.4,23.1,22.5c0.1,12.8,0,25.6,0,39.4c12.9,0.3,25.7-1.1,32,12.4c0,44,0,88.1,0,132.1c-5.2,9.4-13.1,12.2-23.7,12.2
		c-140.8-0.3-281.6-0.2-422.3-0.2c-17.3,0-22.4-5.1-22.5-22.1c-0.1-34.5,0-68.9,0-103.4c0-28.1,0.6-28.8,28.7-31.3
		c0.7-0.1,1.3-0.9,2.9-2c0-12.6-0.1-25.8,0-39c0.1-15.8,5-20.6,20.9-20.8c19.9-0.1,39.7,0,60.7,0c9.5-35.3,31.5-62.2,64.5-80.4
		c-3.3-3.1-5.4-5-7.5-7.1c-26.6-26.1-35.8-57.6-26-93.3c9.9-35.9,34.5-57.6,70.5-66.4C392.5,7118.1,394.7,7117,396.9,7116.2z
		 M498.8,7374c-6.2-39.7-49.7-72.5-93.2-70.3c-42.6,2.2-83.7,36.8-85.1,72.5c40,13,67.2,41.5,88.1,77.8
		C444.8,7403,445.1,7402.7,498.8,7374z M611.2,7457.4c-32.4,2.7-63.5,3.7-94,8.3c-26.8,4-51.6,15.2-72.3,33.6
		c-15.9,14.1-23.4,31.3-18.9,52.8c62.1,0,123.3,0,185.2,0C611.2,7521.5,611.2,7491.4,611.2,7457.4z M207.5,7552.2
		c62.7,0,124,0,185.6,0c4.5-27.1-8.2-45.3-28.4-59.5c-30.1-21.2-64.6-29.7-100.7-32.1c-18.8-1.2-37.8-0.2-56.6-0.2
		C207.5,7491.8,207.5,7521.5,207.5,7552.2z M409.1,7148.3c-34.7,0.1-62.3,28-62.1,62.6c0.3,33.8,28.1,61.6,61.9,61.9
		c34.1,0.3,62.7-28.2,62.7-62.4C471.8,7175.8,443.9,7148.2,409.1,7148.3z M374.9,7461.5c-16.8-44.1-81.7-73-136.5-62.4
		c0,9.2,0,18.5,0,28.8C286.4,7428.4,331.7,7437.7,374.9,7461.5z M580.4,7399.1c-63.1-10.5-115.6,19.2-136.9,63.2
		c43.2-26.4,89.1-33.5,136.9-34.3C580.4,7417.6,580.4,7408.3,580.4,7399.1z"/>
</g>
<g>
	<path d="M385.4,154.6c9.8,0,19.6,0,29.4,0c2.3,0.8,4.5,1.8,6.8,2.3c47.2,10.1,79.2,38,92.7,84.1c13.7,46.8,0.9,87.7-34.1,121.6
		c-2.7,2.6-5.6,5.2-8.7,8.2c55.6,28.4,86.9,63,103.1,113.7c3.7,11.5,6,23.5,9,35.2c0,10.6,0,21.2,0,31.9
		c-9.7,28.2-31.1,44.7-57.9,53.2c-25,7.9-51.1,13-77.1,17.6c-13.7,2.5-26.6,3.3-36.4,15.7c-7.9,9.9-16.8,9.7-24.8-0.2
		c-9.2-11.5-20.7-14.3-34.1-15c-7.7-0.4-15.4-1.5-23-2.8c-29.9-5.1-59.1-12.3-84.5-29.8c-20.3-13.9-31-32.6-29.2-58.1
		c3.9-55,26.1-100.5,69.2-135c12.8-10.2,27.5-18.1,41.7-27.3c-2.9-2.7-5.8-5.4-8.7-8.1c-66.4-62.2-42-172.8,44.4-201
		C370.5,158.3,378,156.6,385.4,154.6z M463.1,587.1c25.1-1,48.3-6.6,69.3-19c14-8.2,21.9-19.3,20.2-37.1
		c-6.1-64.2-39.1-108.3-97.8-133.6c-12.8-5.5-25.9-7.5-40.3-5c-11.4,2-23.4-0.2-35.2-0.3c-6.8,0-13.9-0.7-20.3,1
		c-62.6,16.9-107.4,73.2-111.5,138.3c-1,15.3,4.4,26.1,16.6,34.1c21.9,14.3,46.5,20.2,73,22.5c-8.4-10.2-18.4-18.5-27.2-27.9
		c-17.5-18.7-21.2-45.6-10.1-68.3c11.1-22.8,34.4-37.3,59.9-33.6c14.3,2.1,27.7,9.5,41.6,14.5c0.6,2.1,1.9,1.2,3.1,0.2
		c27.9-22,63.6-20.3,86,4.1c22.9,24.9,21.4,61.4-3.7,87C478.9,572,470.9,579.5,463.1,587.1z M488.6,274.2
		c-0.1-49.4-39.4-88.4-88.8-88.3c-49.3,0.1-88.4,39.5-88.2,88.9c0.2,49.3,39.5,88.5,88.9,88.3C449.6,363.1,488.7,323.7,488.6,274.2z
		 M399.5,606.2c23.7-23.2,47.2-45.3,69.4-68.4c11.5-12,9.2-30.6-2.9-41.8c-12.1-11.1-30.4-12-41.8,0.8
		c-17.5,19.7-26.3,25.5-48.6-0.1c-11.1-12.8-29.8-11.9-41.8-0.8c-12.3,11.4-14,30.5-2.2,42.9C353.7,561.6,376.7,583.6,399.5,606.2z"
		/>
</g>
</svg>
